<svg width="494" height="54" viewBox="0 0 494 54" fill="none" xmlns="http://www.w3.org/2000/svg">
<path d="M1.90137 26.8188H56.4736" stroke="white" stroke-width="2" stroke-linecap="round" stroke-dasharray="4 8"/>
<path d="M139.317 26.8188H193.889" stroke="white" stroke-width="2" stroke-linecap="round" stroke-dasharray="4 8"/>
<path d="M295.188 26.8188H349.76" stroke="white" stroke-width="2" stroke-linecap="round" stroke-dasharray="4 8"/>
<path d="M438.192 26.8188H492.765" stroke="white" stroke-width="2" stroke-linecap="round" stroke-dasharray="4 8"/>
<path d="M95.4503 0.0265117C98.8483 0.0742668 102.033 1.3857 104.645 3.99754C105.031 4.38325 105.365 4.47141 105.883 4.39794C113.373 3.33998 119.949 8.07509 121.326 15.5175C121.686 17.4755 121.572 19.4224 121.014 21.3327C120.874 21.7992 120.966 22.0931 121.268 22.4641C127.465 30.0718 123.758 41.5735 114.284 44.0788C113.744 44.2184 113.505 44.4645 113.318 44.9531C109.799 54.1074 97.974 56.5723 91.0789 49.589C90.7336 49.2437 90.4397 49.1702 89.9732 49.2364C82.3765 50.309 75.7936 45.5666 74.4344 38.0433C74.0818 36.111 74.214 34.1861 74.7687 32.3053C74.9083 31.8388 74.8165 31.5449 74.5226 31.1739C68.2997 23.5588 72.0724 11.9726 81.5793 9.53346C82.0532 9.41223 82.2736 9.20652 82.4463 8.76203C84.496 3.40978 89.4663 0.000797343 95.4503 0.0265117ZM103.686 32.9996C99.3883 35.4792 95.2299 37.8633 91.101 40.2878C90.1679 40.8351 89.3744 40.8204 88.4414 40.2731C85.2087 38.3555 81.9467 36.4967 78.6883 34.6306C78.4495 34.4984 78.2548 34.2302 77.8765 34.3441C77.4356 38.3225 78.6773 41.6396 81.9467 43.9906C85.2381 46.3563 88.8565 46.6502 92.4418 44.751C96.1116 42.8115 99.6565 40.6331 103.249 38.5539C103.455 38.44 103.683 38.3482 103.683 38.047V33.0033L103.686 32.9996ZM101.394 5.90774C101.313 5.62121 101.1 5.54039 100.935 5.42284C97.6581 3.20407 94.172 2.85141 90.6344 4.59631C87.0638 6.36325 85.1646 9.38652 85.0581 13.3722C84.9516 17.4241 85.0434 21.4796 85.0177 25.5314C85.0177 25.9649 85.1646 26.1963 85.532 26.391C86.7369 27.0559 87.9234 27.7576 89.1099 28.4371C89.2569 28.518 89.3891 28.698 89.6352 28.5437C89.6352 23.7461 89.6499 18.9229 89.6279 14.0996C89.6205 13.1077 89.9952 12.4686 90.8548 11.9873C93.3454 10.5877 95.8067 9.14774 98.2826 7.71509C99.3222 7.11631 100.362 6.50284 101.394 5.90407V5.90774ZM106.136 24.8959V25.9429C106.136 30.4943 106.129 35.0567 106.144 39.6082C106.151 40.5339 105.81 41.1621 104.998 41.6066C103.859 42.2274 102.746 42.8923 101.625 43.5388C99.2083 44.9384 96.7875 46.338 94.1426 47.8698C94.3703 47.9506 94.4879 47.969 94.5687 48.0351C97.6067 50.2539 100.924 50.7608 104.403 49.3686C107.881 47.9764 110.126 45.3315 110.552 41.6066C111.066 37.0551 110.659 32.4523 110.739 27.8751C110.747 27.629 110.633 27.4894 110.438 27.3755C109.046 26.5747 107.661 25.7702 106.14 24.8959H106.136ZM100.347 18.7061C100.681 18.9118 100.913 19.0404 101.133 19.1727C105.097 21.4649 109.05 23.7645 113.032 26.0347C113.891 26.5269 114.259 27.1735 114.251 28.1543C114.225 31.9453 114.244 35.7363 114.244 39.5274C114.244 39.8065 114.27 40.0747 114.284 40.4127C114.49 40.3392 114.611 40.2988 114.736 40.2474C118.299 38.5943 120.412 35.8172 120.746 31.9196C121.099 27.8825 119.486 24.6425 116.022 22.5045C112.532 20.3518 108.932 18.3865 105.387 16.322C105.075 16.142 104.847 16.1163 104.52 16.3073C103.176 17.0935 101.816 17.8539 100.351 18.7061H100.347ZM81.5316 13.3282C81.1642 13.2804 80.9438 13.4494 80.7124 13.5669C77.3218 15.2714 75.3418 18.0229 75.0295 21.7882C74.7099 25.6931 76.2234 28.9037 79.5405 30.9976C83.0928 33.2421 86.803 35.2478 90.4397 37.36C90.6528 37.4812 90.8475 37.5878 91.0936 37.4408C92.5005 36.6216 93.9112 35.8025 95.3989 34.9429C95.0867 34.7555 94.8736 34.6159 94.6532 34.4837C90.6895 32.1914 86.7369 29.8918 82.7548 27.629C81.8622 27.122 81.5022 26.4571 81.5095 25.4433C81.5426 21.4245 81.5242 17.3947 81.5242 13.3245L81.5316 13.3282ZM92.1001 20.598C92.4454 20.418 92.6732 20.3041 92.8936 20.1718C96.8169 17.9127 100.747 15.6682 104.641 13.3686C105.574 12.8212 106.368 12.8028 107.301 13.3539C110.585 15.2935 113.891 17.178 117.19 19.0771C117.385 19.191 117.55 19.4041 117.884 19.3049C118.318 15.4073 117.139 12.1159 113.954 9.75754C110.647 7.29999 106.985 6.9657 103.334 8.8906C99.6638 10.8302 96.1189 13.0086 92.5189 15.0804C92.3132 15.1943 92.0928 15.2935 92.0928 15.5947V20.598H92.1001ZM103.686 27.0412C103.686 25.9208 103.661 24.9878 103.694 24.062C103.708 23.6359 103.572 23.3898 103.194 23.1878C101.556 22.2694 99.9283 21.329 98.3157 20.3702C98.0034 20.1829 97.7757 20.1829 97.4561 20.3629C95.8434 21.3216 94.2124 22.262 92.5777 23.1804C92.1993 23.3935 92.0854 23.6396 92.0854 24.0657C92.1112 25.8914 92.1185 27.7245 92.0854 29.5502C92.0781 30.0498 92.2581 30.3106 92.6842 30.531C93.463 30.9314 94.1977 31.398 94.9618 31.8314C95.9279 32.3788 96.894 33.3706 97.8528 33.3633C98.852 33.3559 99.8438 32.3898 100.825 31.8314C101.765 31.2914 103.003 30.9314 103.536 30.1196C104.083 29.26 103.635 27.9486 103.69 27.0412H103.686Z" fill="white"/>
<path d="M279.451 4.53144C278.694 4.15308 278.371 4.87308 277.93 5.24042C277.78 5.35798 277.651 5.51226 277.522 5.65185C276.42 6.85675 275.131 7.64655 273.445 7.55104C270.98 7.40777 268.879 8.20124 267.02 10.1225C266.623 7.74941 265.312 6.33512 263.313 5.42777C262.267 4.95757 261.209 4.48369 260.478 3.45879C259.967 2.72777 259.827 1.91226 259.57 1.11144C259.409 0.626543 259.247 0.130624 258.7 0.0498079C258.105 -0.0457024 257.873 0.461237 257.642 0.88736C256.712 2.62124 256.352 4.53512 256.389 6.46736C256.47 10.8204 258.27 14.2919 261.848 16.7568C262.256 17.0396 262.358 17.3225 262.23 17.7376C261.987 18.5861 261.693 19.4127 261.44 20.2613C261.278 20.8049 261.036 20.9225 260.463 20.6874C258.501 19.8498 256.804 18.6119 255.302 17.1131C252.756 14.6004 250.456 11.827 247.587 9.65594C246.922 9.15635 246.239 8.67879 245.541 8.22696C242.613 5.32491 245.923 2.94083 246.691 2.65797C247.492 2.3641 246.97 1.34654 244.377 1.36124C241.787 1.37226 239.414 2.25757 236.394 3.43675C235.953 3.61308 235.487 3.74532 235.013 3.84818C232.269 3.31553 229.422 3.19797 226.447 3.53961C220.844 4.17512 216.374 6.87879 213.082 11.4927C209.133 17.0396 208.2 23.3396 209.343 29.9115C210.537 36.8396 214.001 42.5739 219.324 47.0556C224.841 51.7062 231.2 53.9837 238.448 53.5466C242.852 53.2858 247.756 52.687 253.285 47.9078C254.681 48.6168 256.147 48.8996 258.571 49.1127C260.445 49.289 262.245 49.0172 263.637 48.7233C265.822 48.2531 265.668 46.1849 264.878 45.8103C258.476 42.7649 259.882 44.0066 258.604 43.0037C261.859 39.0731 266.759 34.9919 268.677 21.7637C268.827 20.7131 268.699 20.0519 268.677 19.2033C268.666 18.6853 268.78 18.4833 269.364 18.4245C270.965 18.2372 272.523 17.789 273.956 16.9845C278.103 14.6702 279.778 10.8719 280.171 6.31675C280.23 5.61879 280.16 4.90246 279.436 4.53512M243.286 45.5274C237.081 40.5462 234.073 38.9078 232.827 38.9776C231.667 39.0474 231.876 40.4066 232.129 41.2919C232.398 42.1662 232.747 42.7686 233.235 43.5327C233.573 44.0396 233.804 44.7964 232.897 45.3621C230.899 46.6258 227.424 44.936 227.262 44.8552C223.218 42.4233 219.834 39.2164 217.454 34.8266C215.154 30.6021 213.817 26.0727 213.597 21.2347C213.538 20.0666 213.876 19.6551 215.011 19.4421C216.51 19.1519 218.045 19.1115 219.555 19.3245C225.888 20.2686 231.281 23.1596 235.799 27.7368C238.378 30.3449 240.329 33.46 242.342 36.5053C244.48 39.738 246.779 42.8164 249.707 45.3437C250.739 46.229 251.566 46.9013 252.356 47.3972C249.975 47.669 245.997 47.7278 243.278 45.5311M246.254 26.0029C246.254 25.4849 246.662 25.0698 247.172 25.0698C247.29 25.0698 247.393 25.0919 247.484 25.1286C247.844 25.2682 248.083 25.6172 248.076 26.0029C248.083 26.5098 247.676 26.9286 247.169 26.936H247.161C246.658 26.936 246.254 26.5245 246.254 26.0249C246.254 26.0176 246.254 26.0102 246.254 26.0066M255.493 30.8445C254.901 31.0907 254.31 31.3037 253.737 31.3294C252.855 31.3772 251.889 31.0098 251.367 30.5617C250.552 29.8637 249.971 29.4743 249.729 28.2621C249.622 27.7441 249.681 26.9396 249.773 26.4804C249.982 25.4886 249.751 24.8531 249.064 24.2727C248.506 23.8025 247.797 23.6702 247.018 23.6702C246.728 23.6702 246.46 23.5417 246.261 23.4351C245.876 23.2515 245.714 22.7886 245.898 22.4029C245.905 22.3845 245.916 22.3662 245.927 22.3515C246.008 22.1862 246.404 21.7857 246.496 21.7159C247.554 21.1025 248.774 21.3045 249.902 21.7637C250.949 22.2008 251.735 23.0017 252.877 24.1368C254.038 25.507 254.247 25.8817 254.909 26.9102C255.434 27.7111 255.908 28.5376 256.235 29.4817C256.433 30.0731 256.176 30.5543 255.493 30.8519" fill="white"/>
<path d="M416.303 14.924H416.318L416.017 14.9203C415.973 14.9203 415.929 14.9203 415.885 14.9203H415.029C412.314 14.8872 409.937 13.0836 409.184 10.4681L407.443 4.49499C406.69 1.8611 404.284 0.0464094 401.547 0.0390625H379.98C373.893 0.0390625 370.242 8.15009 367.806 16.2574C364.923 25.8673 361.15 38.7171 372.067 38.7171H372.332H372.321L373.53 38.7207C376.266 38.7207 378.672 40.5464 379.436 43.2024L381.134 49.124C381.865 51.6991 384.175 53.4991 386.839 53.5909C386.783 53.5909 386.728 53.602 386.67 53.5983H407.972C414.059 53.5983 417.71 45.4873 420.146 37.3762C422.993 27.8877 426.703 15.2472 416.303 14.9203V14.924ZM400.768 19.4166C399.314 24.5521 397.841 29.684 396.36 34.8158C395.445 37.1485 393.194 38.7171 390.648 38.7244H380.127H381.27C384.021 38.7244 386.431 36.8913 387.187 34.2281C388.282 30.3673 389.943 24.5338 391.588 18.8362C392.499 16.4999 394.755 14.9276 397.304 14.9203H406.635C403.909 14.946 401.525 16.7717 400.776 19.4166H400.768Z" fill="white"/>
</svg>
