<svg width="501" height="118" viewBox="0 0 501 118" fill="none" xmlns="http://www.w3.org/2000/svg">
<path d="M370.089 49.7833V53.1993H354.829V49.7833H370.089ZM370.089 56.5033V59.9193H354.829V56.5033H370.089Z" fill="white"/>
<path d="M194.037 94.459C194.037 93.0857 194.344 91.859 194.957 90.779C195.584 89.6857 196.43 88.839 197.497 88.239C198.577 87.6257 199.784 87.319 201.117 87.319C202.677 87.319 204.044 87.719 205.217 88.519C206.39 89.319 207.21 90.4257 207.677 91.839H204.457C204.137 91.1723 203.684 90.6723 203.097 90.339C202.524 90.0057 201.857 89.839 201.097 89.839C200.284 89.839 199.557 90.0323 198.917 90.419C198.29 90.7923 197.797 91.3257 197.437 92.019C197.09 92.7123 196.917 93.5257 196.917 94.459C196.917 95.379 197.09 96.1923 197.437 96.899C197.797 97.5923 198.29 98.1323 198.917 98.519C199.557 98.8923 200.284 99.079 201.097 99.079C201.857 99.079 202.524 98.9123 203.097 98.579C203.684 98.2323 204.137 97.7257 204.457 97.059H207.677C207.21 98.4857 206.39 99.599 205.217 100.399C204.057 101.186 202.69 101.579 201.117 101.579C199.784 101.579 198.577 101.279 197.497 100.679C196.43 100.066 195.584 99.219 194.957 98.139C194.344 97.059 194.037 95.8323 194.037 94.459ZM216.308 90.219C217.148 90.219 217.895 90.4057 218.548 90.779C219.202 91.139 219.708 91.679 220.068 92.399C220.442 93.1057 220.628 93.959 220.628 94.959V101.459H217.828V95.339C217.828 94.459 217.608 93.7857 217.168 93.319C216.728 92.839 216.128 92.599 215.368 92.599C214.595 92.599 213.982 92.839 213.528 93.319C213.088 93.7857 212.868 94.459 212.868 95.339V101.459H210.068V86.659H212.868V91.759C213.228 91.279 213.708 90.9057 214.308 90.639C214.908 90.359 215.575 90.219 216.308 90.219ZM222.571 95.879C222.571 94.759 222.791 93.7657 223.231 92.899C223.684 92.0323 224.291 91.3657 225.051 90.899C225.824 90.4323 226.684 90.199 227.631 90.199C228.458 90.199 229.178 90.3657 229.791 90.699C230.418 91.0323 230.918 91.4523 231.291 91.959V90.379H234.111V101.459H231.291V99.839C230.931 100.359 230.431 100.792 229.791 101.139C229.164 101.472 228.438 101.639 227.611 101.639C226.678 101.639 225.824 101.399 225.051 100.919C224.291 100.439 223.684 99.7657 223.231 98.899C222.791 98.019 222.571 97.0123 222.571 95.879ZM231.291 95.919C231.291 95.239 231.158 94.659 230.891 94.179C230.624 93.6857 230.264 93.3123 229.811 93.059C229.358 92.7923 228.871 92.659 228.351 92.659C227.831 92.659 227.351 92.7857 226.911 93.039C226.471 93.2923 226.111 93.6657 225.831 94.159C225.564 94.639 225.431 95.2123 225.431 95.879C225.431 96.5457 225.564 97.1323 225.831 97.639C226.111 98.1323 226.471 98.5123 226.911 98.779C227.364 99.0457 227.844 99.179 228.351 99.179C228.871 99.179 229.358 99.0523 229.811 98.799C230.264 98.5323 230.624 98.159 230.891 97.679C231.158 97.1857 231.291 96.599 231.291 95.919ZM240.106 92.679V98.039C240.106 98.4123 240.192 98.6857 240.366 98.859C240.552 99.019 240.859 99.099 241.286 99.099H242.586V101.459H240.826C238.466 101.459 237.286 100.312 237.286 98.019V92.679H235.966V90.379H237.286V87.639H240.106V90.379H242.586V92.679H240.106ZM254.32 91.699C254 91.1123 253.56 90.6657 253 90.359C252.44 90.0523 251.786 89.899 251.04 89.899C250.213 89.899 249.48 90.0857 248.84 90.459C248.2 90.8323 247.7 91.3657 247.34 92.059C246.98 92.7523 246.8 93.5523 246.8 94.459C246.8 95.3923 246.98 96.2057 247.34 96.899C247.713 97.5923 248.226 98.1257 248.88 98.499C249.533 98.8723 250.293 99.059 251.16 99.059C252.226 99.059 253.1 98.779 253.78 98.219C254.46 97.6457 254.906 96.8523 255.12 95.839H250.32V93.699H257.88V96.139C257.693 97.1123 257.293 98.0123 256.68 98.839C256.066 99.6657 255.273 100.332 254.3 100.839C253.34 101.332 252.26 101.579 251.06 101.579C249.713 101.579 248.493 101.279 247.4 100.679C246.32 100.066 245.466 99.219 244.84 98.139C244.226 97.059 243.92 95.8323 243.92 94.459C243.92 93.0857 244.226 91.859 244.84 90.779C245.466 89.6857 246.32 88.839 247.4 88.239C248.493 87.6257 249.706 87.319 251.04 87.319C252.613 87.319 253.98 87.7057 255.14 88.479C256.3 89.239 257.1 90.3123 257.54 91.699H254.32ZM270.131 91.819C270.131 92.5657 269.951 93.2657 269.591 93.919C269.245 94.5723 268.691 95.099 267.931 95.499C267.185 95.899 266.238 96.099 265.091 96.099H262.751V101.459H259.951V87.499H265.091C266.171 87.499 267.091 87.6857 267.851 88.059C268.611 88.4323 269.178 88.9457 269.551 89.599C269.938 90.2523 270.131 90.9923 270.131 91.819ZM264.971 93.839C265.745 93.839 266.318 93.6657 266.691 93.319C267.065 92.959 267.251 92.459 267.251 91.819C267.251 90.459 266.491 89.779 264.971 89.779H262.751V93.839H264.971ZM281.619 87.499V89.759H277.899V101.459H275.099V89.759H271.379V87.499H281.619ZM292.182 93.139V95.499H283.702V93.139H292.182ZM295.042 90.719C295.109 89.3857 295.576 88.359 296.442 87.639C297.322 86.9057 298.476 86.539 299.902 86.539C300.876 86.539 301.709 86.7123 302.402 87.059C303.096 87.3923 303.616 87.8523 303.962 88.439C304.322 89.0123 304.502 89.6657 304.502 90.399C304.502 91.239 304.282 91.9523 303.842 92.539C303.416 93.1123 302.902 93.499 302.302 93.699V93.779C303.076 94.019 303.676 94.4457 304.102 95.059C304.542 95.6723 304.762 96.459 304.762 97.419C304.762 98.219 304.576 98.9323 304.202 99.559C303.842 100.186 303.302 100.679 302.582 101.039C301.876 101.386 301.022 101.559 300.022 101.559C298.516 101.559 297.289 101.179 296.342 100.419C295.396 99.659 294.896 98.539 294.842 97.059H297.562C297.589 97.7123 297.809 98.239 298.222 98.639C298.649 99.0257 299.229 99.219 299.962 99.219C300.642 99.219 301.162 99.0323 301.522 98.659C301.896 98.2723 302.082 97.779 302.082 97.179C302.082 96.379 301.829 95.8057 301.322 95.459C300.816 95.1123 300.029 94.939 298.962 94.939H298.382V92.639H298.962C300.856 92.639 301.802 92.0057 301.802 90.739C301.802 90.1657 301.629 89.719 301.282 89.399C300.949 89.079 300.462 88.919 299.822 88.919C299.196 88.919 298.709 89.0923 298.362 89.439C298.029 89.7723 297.836 90.199 297.782 90.719H295.042Z" fill="white"/>
<path d="M246.484 0.751162C250.85 0.812522 254.942 2.49755 258.298 5.85345C258.794 6.34905 259.223 6.46233 259.889 6.36793C269.513 5.00857 277.961 11.0926 279.731 20.6553C280.194 23.171 280.048 25.6726 279.33 28.127C279.151 28.7264 279.269 29.104 279.656 29.5807C287.618 39.3558 282.856 54.134 270.683 57.353C269.989 57.5324 269.683 57.8486 269.442 58.4764C264.92 70.2386 249.727 73.4057 240.867 64.433C240.424 63.9893 240.046 63.8949 239.446 63.9799C229.686 65.3581 221.227 59.2646 219.481 49.5981C219.028 47.1154 219.198 44.6422 219.911 42.2255C220.09 41.6261 219.972 41.2485 219.594 40.7718C211.599 30.9873 216.446 16.1005 228.661 12.9664C229.27 12.8107 229.553 12.5464 229.775 11.9753C232.409 5.09826 238.795 0.718122 246.484 0.751162ZM257.066 43.1176C251.544 46.3036 246.201 49.3669 240.896 52.482C239.697 53.1853 238.677 53.1664 237.478 52.4632C233.325 49.9993 229.133 47.611 224.947 45.2133C224.64 45.0434 224.39 44.6988 223.904 44.8451C223.337 49.9569 224.933 54.219 229.133 57.2398C233.362 60.2794 238.012 60.657 242.618 58.2168C247.334 55.7247 251.888 52.9257 256.504 50.2542C256.769 50.1079 257.061 49.9899 257.061 49.6029V43.1223L257.066 43.1176ZM254.121 8.30783C254.017 7.93968 253.743 7.83584 253.531 7.6848C249.321 4.83394 244.841 4.38082 240.296 6.6228C235.708 8.89311 233.268 12.7776 233.131 17.8988C232.994 23.1049 233.112 28.3158 233.079 33.5219C233.079 34.0789 233.268 34.3762 233.74 34.6264C235.288 35.4807 236.813 36.3822 238.337 37.2554C238.526 37.3593 238.696 37.5905 239.012 37.3923C239.012 31.228 239.031 25.0307 239.003 18.8334C238.993 17.559 239.475 16.7377 240.579 16.1194C243.779 14.3211 246.942 12.4708 250.123 10.6301C251.459 9.8607 252.795 9.07247 254.121 8.30311V8.30783ZM260.214 32.7054V34.0506C260.214 39.8986 260.205 45.7608 260.224 51.6088C260.233 52.7983 259.794 53.6054 258.751 54.1765C257.288 54.9742 255.858 55.8285 254.418 56.6592C251.312 58.4575 248.202 60.2558 244.804 62.2241C245.096 62.3279 245.247 62.3515 245.351 62.4365C249.255 65.2873 253.517 65.9387 257.987 64.1498C262.456 62.3609 265.34 58.9626 265.888 54.1765C266.549 48.3285 266.025 42.4143 266.128 36.5333C266.138 36.217 265.992 36.0377 265.741 35.8913C263.953 34.8624 262.173 33.8287 260.219 32.7054H260.214ZM252.776 24.7522C253.205 25.0165 253.503 25.1817 253.786 25.3516C258.879 28.2969 263.957 31.2516 269.074 34.1686C270.178 34.801 270.65 35.6317 270.641 36.892C270.608 41.763 270.631 46.634 270.631 51.505C270.631 51.8637 270.664 52.2083 270.683 52.6425C270.948 52.5481 271.103 52.4962 271.264 52.4301C275.842 50.3061 278.556 46.7378 278.986 41.7299C279.439 36.5427 277.367 32.3797 272.916 29.6327C268.432 26.8668 263.806 24.3416 259.251 21.6889C258.85 21.4577 258.558 21.4246 258.138 21.6701C256.41 22.6801 254.664 23.6572 252.78 24.7522H252.776ZM228.6 17.8422C228.128 17.7808 227.845 17.9979 227.547 18.149C223.191 20.339 220.647 23.8743 220.246 28.7123C219.835 33.7296 221.78 37.8548 226.042 40.5452C230.606 43.4291 235.373 46.0062 240.046 48.7202C240.32 48.876 240.57 49.0129 240.886 48.8241C242.694 47.7715 244.506 46.719 246.418 45.6145C246.017 45.3738 245.743 45.1944 245.46 45.0245C240.367 42.0792 235.288 39.1245 230.172 36.217C229.025 35.5657 228.562 34.7113 228.572 33.4086C228.614 28.245 228.591 23.0672 228.591 17.8375L228.6 17.8422ZM242.179 27.183C242.623 26.9517 242.916 26.8054 243.199 26.6355C248.24 23.7327 253.29 20.8488 258.293 17.8941C259.492 17.1908 260.512 17.1672 261.711 17.8752C265.93 20.3674 270.178 22.7887 274.417 25.2289C274.667 25.3752 274.879 25.649 275.309 25.5216C275.866 20.5137 274.351 16.2846 270.258 13.2544C266.01 10.0967 261.305 9.66719 256.613 12.1404C251.898 14.6326 247.343 17.4315 242.717 20.0936C242.453 20.2399 242.17 20.3674 242.17 20.7544V27.183H242.179ZM257.066 35.4618C257.066 34.0222 257.033 32.8234 257.076 31.6339C257.094 31.0864 256.92 30.7702 256.434 30.5106C254.329 29.3306 252.238 28.1223 250.166 26.8904C249.764 26.6496 249.472 26.6496 249.061 26.8809C246.989 28.1128 244.893 29.3211 242.793 30.5011C242.307 30.7749 242.16 31.0911 242.16 31.6387C242.193 33.9845 242.203 36.3397 242.16 38.6856C242.151 39.3275 242.382 39.6626 242.93 39.9458C243.93 40.4603 244.874 41.0597 245.856 41.6167C247.098 42.3199 248.339 43.5943 249.571 43.5849C250.855 43.5755 252.129 42.3341 253.389 41.6167C254.598 40.9228 256.188 40.4603 256.873 39.4172C257.576 38.3127 257 36.6277 257.071 35.4618H257.066Z" fill="white"/>
<path d="M430.183 89.299H423.703V92.719C423.983 92.3723 424.383 92.0923 424.903 91.879C425.423 91.6523 425.977 91.539 426.563 91.539C427.63 91.539 428.503 91.7723 429.183 92.239C429.863 92.7057 430.357 93.3057 430.663 94.039C430.97 94.759 431.123 95.5323 431.123 96.359C431.123 97.8923 430.683 99.1257 429.803 100.059C428.937 100.992 427.697 101.459 426.083 101.459C424.563 101.459 423.35 101.079 422.443 100.319C421.537 99.559 421.023 98.5657 420.903 97.339H423.623C423.743 97.8723 424.01 98.299 424.423 98.619C424.85 98.939 425.39 99.099 426.043 99.099C426.83 99.099 427.423 98.8523 427.823 98.359C428.223 97.8657 428.423 97.2123 428.423 96.399C428.423 95.5723 428.217 94.9457 427.803 94.519C427.403 94.079 426.81 93.859 426.023 93.859C425.463 93.859 424.997 93.999 424.623 94.279C424.25 94.559 423.983 94.9323 423.823 95.399H421.143V86.839H430.183V89.299ZM433.254 93.979C433.254 91.6723 433.668 89.8657 434.494 88.559C435.334 87.2523 436.721 86.599 438.654 86.599C440.588 86.599 441.968 87.2523 442.794 88.559C443.634 89.8657 444.054 91.6723 444.054 93.979C444.054 96.299 443.634 98.119 442.794 99.439C441.968 100.759 440.588 101.419 438.654 101.419C436.721 101.419 435.334 100.759 434.494 99.439C433.668 98.119 433.254 96.299 433.254 93.979ZM441.294 93.979C441.294 92.9923 441.228 92.1657 441.094 91.499C440.974 90.819 440.721 90.2657 440.334 89.839C439.961 89.4123 439.401 89.199 438.654 89.199C437.908 89.199 437.341 89.4123 436.954 89.839C436.581 90.2657 436.328 90.819 436.194 91.499C436.074 92.1657 436.014 92.9923 436.014 93.979C436.014 94.9923 436.074 95.8457 436.194 96.539C436.314 97.219 436.568 97.7723 436.954 98.199C437.341 98.6123 437.908 98.819 438.654 98.819C439.401 98.819 439.968 98.6123 440.354 98.199C440.741 97.7723 440.994 97.219 441.114 96.539C441.234 95.8457 441.294 94.9923 441.294 93.979ZM446.184 93.979C446.184 91.6723 446.597 89.8657 447.424 88.559C448.264 87.2523 449.651 86.599 451.584 86.599C453.517 86.599 454.897 87.2523 455.724 88.559C456.564 89.8657 456.984 91.6723 456.984 93.979C456.984 96.299 456.564 98.119 455.724 99.439C454.897 100.759 453.517 101.419 451.584 101.419C449.651 101.419 448.264 100.759 447.424 99.439C446.597 98.119 446.184 96.299 446.184 93.979ZM454.224 93.979C454.224 92.9923 454.157 92.1657 454.024 91.499C453.904 90.819 453.651 90.2657 453.264 89.839C452.891 89.4123 452.331 89.199 451.584 89.199C450.837 89.199 450.271 89.4123 449.884 89.839C449.511 90.2657 449.257 90.819 449.124 91.499C449.004 92.1657 448.944 92.9923 448.944 93.979C448.944 94.9923 449.004 95.8457 449.124 96.539C449.244 97.219 449.497 97.7723 449.884 98.199C450.271 98.6123 450.837 98.819 451.584 98.819C452.331 98.819 452.897 98.6123 453.284 98.199C453.671 97.7723 453.924 97.219 454.044 96.539C454.164 95.8457 454.224 94.9923 454.224 93.979ZM479.419 87.499V101.459H476.619V92.379L472.879 101.459H470.759L466.999 92.379V101.459H464.199V87.499H467.379L471.819 97.879L476.259 87.499H479.419ZM484.988 99.239H489.588V101.459H482.188V87.499H484.988V99.239Z" fill="white"/>
<g filter="url(#filter0_d_320_5186)">
<path d="M453.93 56.3628C445.806 56.3628 440.757 51.3153 440.757 43.2525C440.757 34.8291 452.257 18.4412 452.815 17.7365C452.955 17.536 453.137 17.3736 453.344 17.2618C453.552 17.15 453.781 17.0918 454.013 17.0918C454.245 17.0918 454.474 17.15 454.681 17.2618C454.889 17.3736 455.071 17.536 455.211 17.7365C455.693 18.4412 467.269 34.8291 467.269 43.2525C467.118 51.3153 462.069 56.3628 453.93 56.3628Z" fill="white"/>
</g>
<path d="M12.7611 98.299C14.0411 97.2323 15.0611 96.3457 15.8211 95.639C16.5811 94.919 17.2144 94.1723 17.7211 93.399C18.2278 92.6257 18.4811 91.8657 18.4811 91.119C18.4811 90.439 18.3211 89.9057 18.0011 89.519C17.6811 89.1323 17.1878 88.939 16.5211 88.939C15.8544 88.939 15.3411 89.1657 14.9811 89.619C14.6211 90.059 14.4344 90.6657 14.4211 91.439H11.7011C11.7544 89.839 12.2278 88.6257 13.1211 87.799C14.0278 86.9723 15.1744 86.559 16.5611 86.559C18.0811 86.559 19.2478 86.9657 20.0611 87.779C20.8744 88.579 21.2811 89.639 21.2811 90.959C21.2811 91.999 21.0011 92.9923 20.4411 93.939C19.8811 94.8857 19.2411 95.7123 18.5211 96.419C17.8011 97.1123 16.8611 97.9523 15.7011 98.939H21.6011V101.259H11.7211V99.179L12.7611 98.299ZM23.3655 93.979C23.3655 91.6723 23.7788 89.8657 24.6055 88.559C25.4455 87.2523 26.8321 86.599 28.7655 86.599C30.6988 86.599 32.0788 87.2523 32.9055 88.559C33.7455 89.8657 34.1655 91.6723 34.1655 93.979C34.1655 96.299 33.7455 98.119 32.9055 99.439C32.0788 100.759 30.6988 101.419 28.7655 101.419C26.8321 101.419 25.4455 100.759 24.6055 99.439C23.7788 98.119 23.3655 96.299 23.3655 93.979ZM31.4055 93.979C31.4055 92.9923 31.3388 92.1657 31.2055 91.499C31.0855 90.819 30.8321 90.2657 30.4455 89.839C30.0721 89.4123 29.5121 89.199 28.7655 89.199C28.0188 89.199 27.4521 89.4123 27.0655 89.839C26.6921 90.2657 26.4388 90.819 26.3055 91.499C26.1855 92.1657 26.1255 92.9923 26.1255 93.979C26.1255 94.9923 26.1855 95.8457 26.3055 96.539C26.4255 97.219 26.6788 97.7723 27.0655 98.199C27.4521 98.6123 28.0188 98.819 28.7655 98.819C29.5121 98.819 30.0788 98.6123 30.4655 98.199C30.8521 97.7723 31.1055 97.219 31.2255 96.539C31.3455 95.8457 31.4055 94.9923 31.4055 93.979ZM49.9008 93.139V95.499H41.4208V93.139H49.9008ZM67.2866 89.299H60.8066V92.719C61.0866 92.3723 61.4866 92.0923 62.0066 91.879C62.5266 91.6523 63.0799 91.539 63.6666 91.539C64.7332 91.539 65.6066 91.7723 66.2866 92.239C66.9666 92.7057 67.4599 93.3057 67.7666 94.039C68.0732 94.759 68.2266 95.5323 68.2266 96.359C68.2266 97.8923 67.7866 99.1257 66.9066 100.059C66.0399 100.992 64.7999 101.459 63.1866 101.459C61.6666 101.459 60.4532 101.079 59.5466 100.319C58.6399 99.559 58.1266 98.5657 58.0066 97.339H60.7266C60.8466 97.8723 61.1132 98.299 61.5266 98.619C61.9532 98.939 62.4932 99.099 63.1466 99.099C63.9332 99.099 64.5266 98.8523 64.9266 98.359C65.3266 97.8657 65.5266 97.2123 65.5266 96.399C65.5266 95.5723 65.3199 94.9457 64.9066 94.519C64.5066 94.079 63.9132 93.859 63.1266 93.859C62.5666 93.859 62.0999 93.999 61.7266 94.279C61.3532 94.559 61.0866 94.9323 60.9266 95.399H58.2466V86.839H67.2866V89.299ZM70.3577 93.979C70.3577 91.6723 70.771 89.8657 71.5977 88.559C72.4377 87.2523 73.8243 86.599 75.7577 86.599C77.691 86.599 79.071 87.2523 79.8977 88.559C80.7377 89.8657 81.1577 91.6723 81.1577 93.979C81.1577 96.299 80.7377 98.119 79.8977 99.439C79.071 100.759 77.691 101.419 75.7577 101.419C73.8243 101.419 72.4377 100.759 71.5977 99.439C70.771 98.119 70.3577 96.299 70.3577 93.979ZM78.3977 93.979C78.3977 92.9923 78.331 92.1657 78.1977 91.499C78.0777 90.819 77.8243 90.2657 77.4377 89.839C77.0643 89.4123 76.5043 89.199 75.7577 89.199C75.011 89.199 74.4443 89.4123 74.0577 89.839C73.6843 90.2657 73.431 90.819 73.2977 91.499C73.1777 92.1657 73.1177 92.9923 73.1177 93.979C73.1177 94.9923 73.1777 95.8457 73.2977 96.539C73.4177 97.219 73.671 97.7723 74.0577 98.199C74.4443 98.6123 75.011 98.819 75.7577 98.819C76.5043 98.819 77.071 98.6123 77.4577 98.199C77.8443 97.7723 78.0977 97.219 78.2177 96.539C78.3377 95.8457 78.3977 94.9923 78.3977 93.979Z" fill="white"/>
<path d="M47.166 69.6003V69.6025C28.1845 69.6025 12.7402 54.1582 12.7402 35.1767C12.7402 16.193 28.1823 0.750977 47.166 0.750977C66.1497 0.750977 81.5917 16.193 81.5917 35.1767C81.5917 42.206 79.5004 48.9319 75.5349 54.6832L78.4999 65.0561C78.8119 66.1491 78.6655 67.1754 78.0868 67.9414C77.3617 68.9032 76.0513 69.2775 74.6721 68.8838L63.2514 65.6198C58.3221 68.2255 52.7774 69.6003 47.166 69.6003ZM63.0406 61.9255L63.0428 61.9233C63.2062 61.9233 63.3719 61.947 63.5312 61.9901L74.8443 65.224L71.8772 54.836C71.7266 54.311 71.8255 53.7429 72.1483 53.2997C75.9975 48.0068 78.0308 41.7391 78.0308 35.1724C78.0308 18.1532 64.1852 4.30755 47.166 4.30755C30.1467 4.30755 16.3012 18.1532 16.3012 35.1724C16.3012 52.1916 30.1467 66.0372 47.166 66.0372C52.4224 66.0372 57.612 64.6924 62.1734 62.1493C62.4403 62.0008 62.7393 61.9255 63.0406 61.9255Z" fill="white" stroke="white" stroke-linejoin="round"/>
<path d="M47.1662 47.0446C46.1829 47.0446 45.3847 46.2464 45.3847 45.2631V38.1412C45.3847 35.0988 47.6826 33.6917 49.5287 32.5599C51.7642 31.1893 53.6942 30.006 53.6942 26.2708C53.6942 22.6711 50.7637 19.7428 47.1662 19.7428C43.5687 19.7428 40.6382 22.6711 40.6382 26.2708C40.6382 27.2541 39.8421 28.0523 38.8567 28.0523C37.8712 28.0523 37.0752 27.2562 37.0752 26.2708C37.0752 20.7067 41.6021 16.1797 47.1662 16.1797C52.7303 16.1797 57.2573 20.7067 57.2573 26.2708C57.2573 32.0005 53.8685 34.079 51.392 35.5959C49.617 36.6824 48.9477 37.1859 48.9477 38.1412V45.2631C48.9477 46.2464 48.1495 47.0446 47.1662 47.0446Z" fill="white" stroke="white" stroke-linejoin="round"/>
<path d="M48.9478 51.7932C48.9478 52.7765 48.1496 53.5748 47.1663 53.5748C46.183 53.5748 45.3848 52.7765 45.3848 51.7932C45.3848 50.81 46.183 50.0117 47.1663 50.0117C48.1496 50.0117 48.9478 50.81 48.9478 51.7932Z" fill="white" stroke="white" stroke-linejoin="round"/>
<path d="M138.966 61.3753L134.878 57.2873L130.818 61.3473L128.27 58.7993L132.33 54.7113L128.382 50.7633L130.93 48.2153L134.878 52.1633L138.826 48.2153L141.402 50.7633L137.454 54.7113L141.542 58.8273L138.966 61.3753Z" fill="white"/>
<defs>
<filter id="filter0_d_320_5186" x="440.757" y="17.0918" width="26.5117" height="39.2715" filterUnits="userSpaceOnUse" color-interpolation-filters="sRGB">
<feFlood flood-opacity="0" result="BackgroundImageFix"/>
<feColorMatrix in="SourceAlpha" type="matrix" values="0 0 0 0 0 0 0 0 0 0 0 0 0 0 0 0 0 0 127 0" result="hardAlpha"/>
<feOffset/>
<feComposite in2="hardAlpha" operator="out"/>
<feColorMatrix type="matrix" values="0 0 0 0 1 0 0 0 0 1 0 0 0 0 1 0 0 0 0.25 0"/>
<feBlend mode="normal" in2="BackgroundImageFix" result="effect1_dropShadow_320_5186"/>
<feBlend mode="normal" in="SourceGraphic" in2="effect1_dropShadow_320_5186" result="shape"/>
</filter>
</defs>
</svg>
