<svg width="501" height="107" viewBox="0 0 501 107" fill="none" xmlns="http://www.w3.org/2000/svg">
<path d="M214.983 81.5644L209.663 94.0244H206.823L212.183 81.8844H205.343V79.4844H214.983V81.5644ZM216.66 86.5444C216.66 84.2377 217.073 82.4311 217.9 81.1244C218.74 79.8177 220.127 79.1644 222.06 79.1644C223.993 79.1644 225.373 79.8177 226.2 81.1244C227.04 82.4311 227.46 84.2377 227.46 86.5444C227.46 88.8644 227.04 90.6844 226.2 92.0044C225.373 93.3244 223.993 93.9844 222.06 93.9844C220.127 93.9844 218.74 93.3244 217.9 92.0044C217.073 90.6844 216.66 88.8644 216.66 86.5444ZM224.7 86.5444C224.7 85.5577 224.633 84.7311 224.5 84.0644C224.38 83.3844 224.127 82.8311 223.74 82.4044C223.367 81.9777 222.807 81.7644 222.06 81.7644C221.313 81.7644 220.747 81.9777 220.36 82.4044C219.987 82.8311 219.733 83.3844 219.6 84.0644C219.48 84.7311 219.42 85.5577 219.42 86.5444C219.42 87.5577 219.48 88.4111 219.6 89.1044C219.72 89.7844 219.973 90.3377 220.36 90.7644C220.747 91.1777 221.313 91.3844 222.06 91.3844C222.807 91.3844 223.373 91.1777 223.76 90.7644C224.147 90.3377 224.4 89.7844 224.52 89.1044C224.64 88.4111 224.7 87.5577 224.7 86.5444ZM229.59 86.5444C229.59 84.2377 230.003 82.4311 230.83 81.1244C231.67 79.8177 233.056 79.1644 234.99 79.1644C236.923 79.1644 238.303 79.8177 239.13 81.1244C239.97 82.4311 240.39 84.2377 240.39 86.5444C240.39 88.8644 239.97 90.6844 239.13 92.0044C238.303 93.3244 236.923 93.9844 234.99 93.9844C233.056 93.9844 231.67 93.3244 230.83 92.0044C230.003 90.6844 229.59 88.8644 229.59 86.5444ZM237.63 86.5444C237.63 85.5577 237.563 84.7311 237.43 84.0644C237.31 83.3844 237.056 82.8311 236.67 82.4044C236.296 81.9777 235.736 81.7644 234.99 81.7644C234.243 81.7644 233.676 81.9777 233.29 82.4044C232.916 82.8311 232.663 83.3844 232.53 84.0644C232.41 84.7311 232.35 85.5577 232.35 86.5444C232.35 87.5577 232.41 88.4111 232.53 89.1044C232.65 89.7844 232.903 90.3377 233.29 90.7644C233.676 91.1777 234.243 91.3844 234.99 91.3844C235.736 91.3844 236.303 91.1777 236.69 90.7644C237.076 90.3377 237.33 89.7844 237.45 89.1044C237.57 88.4111 237.63 87.5577 237.63 86.5444ZM244.079 94.1644C243.573 94.1644 243.153 94.0111 242.819 93.7044C242.499 93.3844 242.339 92.9911 242.339 92.5244C242.339 92.0577 242.499 91.6711 242.819 91.3644C243.153 91.0444 243.573 90.8844 244.079 90.8844C244.573 90.8844 244.979 91.0444 245.299 91.3644C245.619 91.6711 245.779 92.0577 245.779 92.5244C245.779 92.9911 245.619 93.3844 245.299 93.7044C244.979 94.0111 244.573 94.1644 244.079 94.1644ZM247.715 86.5444C247.715 84.2377 248.128 82.4311 248.955 81.1244C249.795 79.8177 251.181 79.1644 253.115 79.1644C255.048 79.1644 256.428 79.8177 257.255 81.1244C258.095 82.4311 258.515 84.2377 258.515 86.5444C258.515 88.8644 258.095 90.6844 257.255 92.0044C256.428 93.3244 255.048 93.9844 253.115 93.9844C251.181 93.9844 249.795 93.3244 248.955 92.0044C248.128 90.6844 247.715 88.8644 247.715 86.5444ZM255.755 86.5444C255.755 85.5577 255.688 84.7311 255.555 84.0644C255.435 83.3844 255.181 82.8311 254.795 82.4044C254.421 81.9777 253.861 81.7644 253.115 81.7644C252.368 81.7644 251.801 81.9777 251.415 82.4044C251.041 82.8311 250.788 83.3844 250.655 84.0644C250.535 84.7311 250.475 85.5577 250.475 86.5444C250.475 87.5577 250.535 88.4111 250.655 89.1044C250.775 89.7844 251.028 90.3377 251.415 90.7644C251.801 91.1777 252.368 91.3844 253.115 91.3844C253.861 91.3844 254.428 91.1777 254.815 90.7644C255.201 90.3377 255.455 89.7844 255.575 89.1044C255.695 88.4111 255.755 87.5577 255.755 86.5444ZM260.644 86.5444C260.644 84.2377 261.058 82.4311 261.884 81.1244C262.724 79.8177 264.111 79.1644 266.044 79.1644C267.978 79.1644 269.358 79.8177 270.184 81.1244C271.024 82.4311 271.444 84.2377 271.444 86.5444C271.444 88.8644 271.024 90.6844 270.184 92.0044C269.358 93.3244 267.978 93.9844 266.044 93.9844C264.111 93.9844 262.724 93.3244 261.884 92.0044C261.058 90.6844 260.644 88.8644 260.644 86.5444ZM268.684 86.5444C268.684 85.5577 268.618 84.7311 268.484 84.0644C268.364 83.3844 268.111 82.8311 267.724 82.4044C267.351 81.9777 266.791 81.7644 266.044 81.7644C265.298 81.7644 264.731 81.9777 264.344 82.4044C263.971 82.8311 263.718 83.3844 263.584 84.0644C263.464 84.7311 263.404 85.5577 263.404 86.5444C263.404 87.5577 263.464 88.4111 263.584 89.1044C263.704 89.7844 263.958 90.3377 264.344 90.7644C264.731 91.1777 265.298 91.3844 266.044 91.3844C266.791 91.3844 267.358 91.1777 267.744 90.7644C268.131 90.3377 268.384 89.7844 268.504 89.1044C268.624 88.4111 268.684 87.5577 268.684 86.5444ZM273.574 86.5444C273.574 84.2377 273.987 82.4311 274.814 81.1244C275.654 79.8177 277.041 79.1644 278.974 79.1644C280.907 79.1644 282.287 79.8177 283.114 81.1244C283.954 82.4311 284.374 84.2377 284.374 86.5444C284.374 88.8644 283.954 90.6844 283.114 92.0044C282.287 93.3244 280.907 93.9844 278.974 93.9844C277.041 93.9844 275.654 93.3244 274.814 92.0044C273.987 90.6844 273.574 88.8644 273.574 86.5444ZM281.614 86.5444C281.614 85.5577 281.547 84.7311 281.414 84.0644C281.294 83.3844 281.041 82.8311 280.654 82.4044C280.281 81.9777 279.721 81.7644 278.974 81.7644C278.227 81.7644 277.661 81.9777 277.274 82.4044C276.901 82.8311 276.647 83.3844 276.514 84.0644C276.394 84.7311 276.334 85.5577 276.334 86.5444C276.334 87.5577 276.394 88.4111 276.514 89.1044C276.634 89.7844 276.887 90.3377 277.274 90.7644C277.661 91.1777 278.227 91.3844 278.974 91.3844C279.721 91.3844 280.287 91.1777 280.674 90.7644C281.061 90.3377 281.314 89.7844 281.434 89.1044C281.554 88.4111 281.614 87.5577 281.614 86.5444ZM294.389 91.8044H298.989V94.0244H291.589V80.0644H294.389V91.8044Z" fill="white"/>
<path d="M170.588 46.1491V49.5651H155.328V46.1491H170.588ZM170.588 52.8691V56.2851H155.328V52.8691H170.588Z" fill="white"/>
<path d="M343.713 46.1491V49.5651H328.453V46.1491H343.713ZM343.713 52.8691V56.2851H328.453V52.8691H343.713Z" fill="white"/>
<path d="M10.4891 87.0244C10.4891 85.6511 10.7957 84.4244 11.4091 83.3444C12.0357 82.2511 12.8824 81.4044 13.9491 80.8044C15.0291 80.1911 16.2357 79.8844 17.5691 79.8844C19.1291 79.8844 20.4957 80.2844 21.6691 81.0844C22.8424 81.8844 23.6624 82.9911 24.1291 84.4044H20.9091C20.5891 83.7377 20.1357 83.2377 19.5491 82.9044C18.9757 82.5711 18.3091 82.4044 17.5491 82.4044C16.7357 82.4044 16.0091 82.5977 15.3691 82.9844C14.7424 83.3577 14.2491 83.8911 13.8891 84.5844C13.5424 85.2777 13.3691 86.0911 13.3691 87.0244C13.3691 87.9444 13.5424 88.7577 13.8891 89.4644C14.2491 90.1577 14.7424 90.6977 15.3691 91.0844C16.0091 91.4577 16.7357 91.6444 17.5491 91.6444C18.3091 91.6444 18.9757 91.4777 19.5491 91.1444C20.1357 90.7977 20.5891 90.2911 20.9091 89.6244H24.1291C23.6624 91.0511 22.8424 92.1644 21.6691 92.9644C20.5091 93.7511 19.1424 94.1444 17.5691 94.1444C16.2357 94.1444 15.0291 93.8444 13.9491 93.2444C12.8824 92.6311 12.0357 91.7844 11.4091 90.7044C10.7957 89.6244 10.4891 88.3977 10.4891 87.0244ZM32.7606 82.7844C33.6006 82.7844 34.3473 82.9711 35.0006 83.3444C35.654 83.7044 36.1606 84.2444 36.5206 84.9644C36.894 85.6711 37.0806 86.5244 37.0806 87.5244V94.0244H34.2806V87.9044C34.2806 87.0244 34.0606 86.3511 33.6206 85.8844C33.1806 85.4044 32.5806 85.1644 31.8206 85.1644C31.0473 85.1644 30.434 85.4044 29.9806 85.8844C29.5406 86.3511 29.3206 87.0244 29.3206 87.9044V94.0244H26.5206V79.2244H29.3206V84.3244C29.6806 83.8444 30.1606 83.4711 30.7606 83.2044C31.3606 82.9244 32.0273 82.7844 32.7606 82.7844ZM39.0233 88.4444C39.0233 87.3244 39.2433 86.3311 39.6833 85.4644C40.1366 84.5977 40.7433 83.9311 41.5033 83.4644C42.2766 82.9977 43.1366 82.7644 44.0833 82.7644C44.9099 82.7644 45.6299 82.9311 46.2433 83.2644C46.8699 83.5977 47.3699 84.0177 47.7433 84.5244V82.9444H50.5633V94.0244H47.7433V92.4044C47.3833 92.9244 46.8833 93.3577 46.2433 93.7044C45.6166 94.0377 44.8899 94.2044 44.0633 94.2044C43.1299 94.2044 42.2766 93.9644 41.5033 93.4844C40.7433 93.0044 40.1366 92.3311 39.6833 91.4644C39.2433 90.5844 39.0233 89.5777 39.0233 88.4444ZM47.7433 88.4844C47.7433 87.8044 47.6099 87.2244 47.3433 86.7444C47.0766 86.2511 46.7166 85.8777 46.2633 85.6244C45.8099 85.3577 45.3233 85.2244 44.8033 85.2244C44.2833 85.2244 43.8033 85.3511 43.3633 85.6044C42.9233 85.8577 42.5633 86.2311 42.2833 86.7244C42.0166 87.2044 41.8833 87.7777 41.8833 88.4444C41.8833 89.1111 42.0166 89.6977 42.2833 90.2044C42.5633 90.6977 42.9233 91.0777 43.3633 91.3444C43.8166 91.6111 44.2966 91.7444 44.8033 91.7444C45.3233 91.7444 45.8099 91.6177 46.2633 91.3644C46.7166 91.0977 47.0766 90.7244 47.3433 90.2444C47.6099 89.7511 47.7433 89.1644 47.7433 88.4844ZM56.558 85.2444V90.6044C56.558 90.9777 56.6446 91.2511 56.818 91.4244C57.0046 91.5844 57.3113 91.6644 57.738 91.6644H59.038V94.0244H57.278C54.918 94.0244 53.738 92.8777 53.738 90.5844V85.2444H52.418V82.9444H53.738V80.2044H56.558V82.9444H59.038V85.2444H56.558ZM70.7719 84.2644C70.4519 83.6777 70.0119 83.2311 69.4519 82.9244C68.8919 82.6177 68.2385 82.4644 67.4919 82.4644C66.6652 82.4644 65.9319 82.6511 65.2919 83.0244C64.6519 83.3977 64.1519 83.9311 63.7919 84.6244C63.4319 85.3177 63.2519 86.1177 63.2519 87.0244C63.2519 87.9577 63.4319 88.7711 63.7919 89.4644C64.1652 90.1577 64.6785 90.6911 65.3319 91.0644C65.9852 91.4377 66.7452 91.6244 67.6119 91.6244C68.6785 91.6244 69.5519 91.3444 70.2319 90.7844C70.9119 90.2111 71.3585 89.4177 71.5719 88.4044H66.7719V86.2644H74.3319V88.7044C74.1452 89.6777 73.7452 90.5777 73.1319 91.4044C72.5185 92.2311 71.7252 92.8977 70.7519 93.4044C69.7919 93.8977 68.7119 94.1444 67.5119 94.1444C66.1652 94.1444 64.9452 93.8444 63.8519 93.2444C62.7719 92.6311 61.9185 91.7844 61.2919 90.7044C60.6785 89.6244 60.3719 88.3977 60.3719 87.0244C60.3719 85.6511 60.6785 84.4244 61.2919 83.3444C61.9185 82.2511 62.7719 81.4044 63.8519 80.8044C64.9452 80.1911 66.1585 79.8844 67.4919 79.8844C69.0652 79.8844 70.4319 80.2711 71.5919 81.0444C72.7519 81.8044 73.5519 82.8777 73.9919 84.2644H70.7719ZM86.5834 84.3844C86.5834 85.1311 86.4034 85.8311 86.0434 86.4844C85.6968 87.1377 85.1434 87.6644 84.3834 88.0644C83.6368 88.4644 82.6901 88.6644 81.5434 88.6644H79.2034V94.0244H76.4034V80.0644H81.5434C82.6234 80.0644 83.5434 80.2511 84.3034 80.6244C85.0634 80.9977 85.6301 81.5111 86.0034 82.1644C86.3901 82.8177 86.5834 83.5577 86.5834 84.3844ZM81.4234 86.4044C82.1968 86.4044 82.7701 86.2311 83.1434 85.8844C83.5168 85.5244 83.7034 85.0244 83.7034 84.3844C83.7034 83.0244 82.9434 82.3444 81.4234 82.3444H79.2034V86.4044H81.4234ZM98.0714 80.0644V82.3244H94.3514V94.0244H91.5514V82.3244H87.8314V80.0644H98.0714ZM108.634 85.7044V88.0644H100.154V85.7044H108.634ZM111.495 83.2844C111.561 81.9511 112.028 80.9244 112.895 80.2044C113.775 79.4711 114.928 79.1044 116.355 79.1044C117.328 79.1044 118.161 79.2777 118.855 79.6244C119.548 79.9577 120.068 80.4177 120.415 81.0044C120.775 81.5777 120.955 82.2311 120.955 82.9644C120.955 83.8044 120.735 84.5177 120.295 85.1044C119.868 85.6777 119.355 86.0644 118.755 86.2644V86.3444C119.528 86.5844 120.128 87.0111 120.555 87.6244C120.995 88.2377 121.215 89.0244 121.215 89.9844C121.215 90.7844 121.028 91.4977 120.655 92.1244C120.295 92.7511 119.755 93.2444 119.035 93.6044C118.328 93.9511 117.475 94.1244 116.475 94.1244C114.968 94.1244 113.741 93.7444 112.795 92.9844C111.848 92.2244 111.348 91.1044 111.295 89.6244H114.015C114.041 90.2777 114.261 90.8044 114.675 91.2044C115.101 91.5911 115.681 91.7844 116.415 91.7844C117.095 91.7844 117.615 91.5977 117.975 91.2244C118.348 90.8377 118.535 90.3444 118.535 89.7444C118.535 88.9444 118.281 88.3711 117.775 88.0244C117.268 87.6777 116.481 87.5044 115.415 87.5044H114.835V85.2044H115.415C117.308 85.2044 118.255 84.5711 118.255 83.3044C118.255 82.7311 118.081 82.2844 117.735 81.9644C117.401 81.6444 116.915 81.4844 116.275 81.4844C115.648 81.4844 115.161 81.6577 114.815 82.0044C114.481 82.3377 114.288 82.7644 114.235 83.2844H111.495Z" fill="white"/>
<path d="M63.2301 0.673996C67.188 0.72962 70.8976 2.25714 73.9398 5.29933C74.3891 5.7486 74.7785 5.85129 75.3818 5.76571C84.1062 4.53343 91.7651 10.0487 93.3697 18.7175C93.789 20.9981 93.6563 23.2658 93.006 25.4908C92.8434 26.0342 92.9503 26.3765 93.3012 26.8086C100.519 35.6699 96.2022 49.0667 85.1673 51.9848C84.5383 52.1474 84.2602 52.4341 84.042 53.0032C79.9429 63.6658 66.1696 66.5369 58.1384 58.403C57.7362 58.0008 57.3939 57.9152 56.8505 57.9922C48.002 59.2416 40.3345 53.7177 38.7514 44.9548C38.3406 42.7042 38.4946 40.4621 39.1407 38.2714C39.3033 37.728 39.1964 37.3857 38.8541 36.9536C31.6058 28.0837 36.0001 14.5885 47.0735 11.7474C47.6255 11.6062 47.8822 11.3666 48.0833 10.8489C50.4709 4.61473 56.26 0.644045 63.2301 0.673996ZM72.8231 39.0801C67.8169 41.9683 62.9734 44.7452 58.1641 47.5691C57.0773 48.2067 56.1531 48.1896 55.0662 47.552C51.3009 45.3185 47.5014 43.1535 43.7062 40.9799C43.428 40.8258 43.2013 40.5135 42.7606 40.6461C42.2471 45.28 43.6933 49.1437 47.5014 51.8821C51.3352 54.6376 55.5498 54.9799 59.7258 52.7678C64.0003 50.5087 68.1293 47.9714 72.3139 45.5496C72.5535 45.4169 72.8188 45.31 72.8188 44.9591V39.0844L72.8231 39.0801ZM70.1531 7.52428C70.059 7.19054 69.8108 7.09641 69.6183 6.95949C65.8016 4.37512 61.7411 3.96436 57.6207 5.99677C53.4617 8.05485 51.2496 11.5763 51.1255 16.2187C51.0014 20.9382 51.1084 25.6619 51.0785 30.3814C51.0785 30.8863 51.2496 31.1558 51.6775 31.3826C53.0809 32.1571 54.4629 32.9743 55.845 33.7659C56.0161 33.86 56.1702 34.0697 56.4568 33.89C56.4568 28.3019 56.474 22.6839 56.4483 17.0659C56.4397 15.9106 56.8762 15.1661 57.8774 14.6056C60.7784 12.9754 63.6452 11.2981 66.529 9.62943C67.7399 8.93199 68.9508 8.21744 70.1531 7.52V7.52428ZM75.677 29.6412V30.8606C75.677 36.162 75.6685 41.4762 75.6856 46.7776C75.6941 47.8558 75.2962 48.5875 74.3506 49.1052C73.0242 49.8283 71.7277 50.6028 70.4227 51.3558C67.6073 52.986 64.7876 54.6163 61.7069 56.4005C61.9722 56.4946 62.1091 56.516 62.2032 56.593C65.7417 59.1774 69.6055 59.7679 73.6574 58.1462C77.7094 56.5246 80.3237 53.4439 80.8201 49.1052C81.4191 43.8038 80.9442 38.4426 81.0383 33.1112C81.0469 32.8246 80.9142 32.662 80.6874 32.5293C79.0658 31.5966 77.4527 30.6595 75.6813 29.6412H75.677ZM68.9337 22.4315C69.3231 22.6711 69.5926 22.8208 69.8493 22.9749C74.4661 25.6448 79.0701 28.3233 83.7082 30.9676C84.7095 31.5409 85.1373 32.294 85.1288 33.4364C85.0988 37.8521 85.1202 42.2678 85.1202 46.6834C85.1202 47.0086 85.1502 47.321 85.1673 47.7146C85.4069 47.6291 85.5481 47.582 85.6936 47.5221C89.844 45.5966 92.3043 42.3619 92.6936 37.8221C93.1044 33.1198 91.226 29.3459 87.1911 26.8557C83.1263 24.3483 78.9331 22.0592 74.8041 19.6546C74.4405 19.4449 74.1752 19.4149 73.7944 19.6374C72.2283 20.5531 70.6452 21.4388 68.938 22.4315H68.9337ZM47.0179 16.1674C46.59 16.1117 46.3333 16.3086 46.0638 16.4455C42.1145 18.4308 39.8082 21.6356 39.4445 26.0213C39.0723 30.5697 40.8351 34.3093 44.6988 36.7482C48.8364 39.3625 53.1579 41.6987 57.3939 44.159C57.6421 44.3002 57.8688 44.4243 58.1555 44.2531C59.7943 43.299 61.4373 42.3448 63.1702 41.3436C62.8065 41.1253 62.5583 40.9628 62.3016 40.8087C57.6848 38.1388 53.0809 35.4603 48.4427 32.8246C47.403 32.2341 46.9837 31.4596 46.9922 30.2787C47.0308 25.5977 47.0094 20.9039 47.0094 16.1631L47.0179 16.1674ZM59.3279 24.635C59.7301 24.4254 59.9954 24.2927 60.2521 24.1387C64.8218 21.5073 69.4001 18.8929 73.9356 16.2144C75.0224 15.5769 75.9466 15.5555 77.0334 16.1973C80.8586 18.4565 84.7095 20.6515 88.5518 22.8636C88.7786 22.9963 88.9711 23.2444 89.3605 23.1289C89.8654 18.5891 88.4919 14.7554 84.7822 12.0084C80.9313 9.14593 76.6654 8.75656 72.4123 10.9986C68.1378 13.2578 64.0088 15.7951 59.8157 18.2083C59.5761 18.341 59.3193 18.4565 59.3193 18.8074V24.635H59.3279ZM72.8231 32.14C72.8231 30.8349 72.7931 29.7481 72.8316 28.6699C72.8488 28.1736 72.6904 27.8869 72.2497 27.6515C70.3414 26.5819 68.4459 25.4865 66.5675 24.3697C66.2039 24.1515 65.9386 24.1515 65.5663 24.3612C63.6879 25.4779 61.7882 26.5733 59.8841 27.643C59.4434 27.8912 59.3108 28.1778 59.3108 28.6742C59.3407 30.8007 59.3493 32.9358 59.3108 35.0624C59.3022 35.6443 59.5119 35.9481 60.0082 36.2048C60.9153 36.6712 61.7711 37.2146 62.661 37.7195C63.7864 38.357 64.9117 39.5123 66.0284 39.5037C67.1922 39.4951 68.3475 38.3698 69.4899 37.7195C70.5853 37.0905 72.0272 36.6712 72.6477 35.7256C73.2852 34.7243 72.7632 33.1968 72.8274 32.14H72.8231Z" fill="white"/>
<path d="M389.865 86.8644C390.651 87.0111 391.298 87.4044 391.805 88.0444C392.311 88.6844 392.565 89.4177 392.565 90.2444C392.565 90.9911 392.378 91.6511 392.005 92.2244C391.645 92.7844 391.118 93.2244 390.425 93.5444C389.731 93.8644 388.911 94.0244 387.965 94.0244H381.945V80.0644H387.705C388.651 80.0644 389.465 80.2177 390.145 80.5244C390.838 80.8311 391.358 81.2577 391.705 81.8044C392.065 82.3511 392.245 82.9711 392.245 83.6644C392.245 84.4777 392.025 85.1577 391.585 85.7044C391.158 86.2511 390.585 86.6377 389.865 86.8644ZM384.745 85.8244H387.305C387.971 85.8244 388.485 85.6777 388.845 85.3844C389.205 85.0777 389.385 84.6444 389.385 84.0844C389.385 83.5244 389.205 83.0911 388.845 82.7844C388.485 82.4777 387.971 82.3244 387.305 82.3244H384.745V85.8244ZM387.565 91.7444C388.245 91.7444 388.771 91.5844 389.145 91.2644C389.531 90.9444 389.725 90.4911 389.725 89.9044C389.725 89.3044 389.525 88.8377 389.125 88.5044C388.725 88.1577 388.185 87.9844 387.505 87.9844H384.745V91.7444H387.565ZM410.016 80.0644V94.0244H407.216V84.9444L403.476 94.0244H401.356L397.596 84.9444V94.0244H394.796V80.0644H397.976L402.416 90.4444L406.856 80.0644H410.016ZM431.445 80.0644L427.545 94.0244H424.245L421.625 84.0844L418.885 94.0244L415.605 94.0444L411.845 80.0644H414.845L417.305 90.9044L420.145 80.0644H423.265L425.945 90.8444L428.425 80.0644H431.445ZM446.258 91.5644L443.338 88.6444L440.438 91.5444L438.618 89.7244L441.518 86.8044L438.698 83.9844L440.518 82.1644L443.338 84.9844L446.158 82.1644L447.998 83.9844L445.178 86.8044L448.098 89.7444L446.258 91.5644ZM455.923 83.2844C455.989 81.9511 456.456 80.9244 457.323 80.2044C458.203 79.4711 459.356 79.1044 460.783 79.1044C461.756 79.1044 462.589 79.2777 463.283 79.6244C463.976 79.9577 464.496 80.4177 464.843 81.0044C465.203 81.5777 465.383 82.2311 465.383 82.9644C465.383 83.8044 465.163 84.5177 464.723 85.1044C464.296 85.6777 463.783 86.0644 463.183 86.2644V86.3444C463.956 86.5844 464.556 87.0111 464.983 87.6244C465.423 88.2377 465.643 89.0244 465.643 89.9844C465.643 90.7844 465.456 91.4977 465.083 92.1244C464.723 92.7511 464.183 93.2444 463.463 93.6044C462.756 93.9511 461.903 94.1244 460.903 94.1244C459.396 94.1244 458.169 93.7444 457.223 92.9844C456.276 92.2244 455.776 91.1044 455.723 89.6244H458.443C458.469 90.2777 458.689 90.8044 459.103 91.2044C459.529 91.5911 460.109 91.7844 460.843 91.7844C461.523 91.7844 462.043 91.5977 462.403 91.2244C462.776 90.8377 462.963 90.3444 462.963 89.7444C462.963 88.9444 462.709 88.3711 462.203 88.0244C461.696 87.6777 460.909 87.5044 459.843 87.5044H459.263V85.2044H459.843C461.736 85.2044 462.683 84.5711 462.683 83.3044C462.683 82.7311 462.509 82.2844 462.163 81.9644C461.829 81.6444 461.343 81.4844 460.703 81.4844C460.076 81.4844 459.589 81.6577 459.243 82.0044C458.909 82.3377 458.716 82.7644 458.663 83.2844H455.923ZM477.135 81.5644L471.815 94.0244H468.975L474.335 81.8844H467.495V79.4844H477.135V81.5644ZM478.812 86.5444C478.812 84.2377 479.226 82.4311 480.052 81.1244C480.892 79.8177 482.279 79.1644 484.212 79.1644C486.146 79.1644 487.526 79.8177 488.352 81.1244C489.192 82.4311 489.612 84.2377 489.612 86.5444C489.612 88.8644 489.192 90.6844 488.352 92.0044C487.526 93.3244 486.146 93.9844 484.212 93.9844C482.279 93.9844 480.892 93.3244 480.052 92.0044C479.226 90.6844 478.812 88.8644 478.812 86.5444ZM486.852 86.5444C486.852 85.5577 486.786 84.7311 486.652 84.0644C486.532 83.3844 486.279 82.8311 485.892 82.4044C485.519 81.9777 484.959 81.7644 484.212 81.7644C483.466 81.7644 482.899 81.9777 482.512 82.4044C482.139 82.8311 481.886 83.3844 481.752 84.0644C481.632 84.7311 481.572 85.5577 481.572 86.5444C481.572 87.5577 481.632 88.4111 481.752 89.1044C481.872 89.7844 482.126 90.3377 482.512 90.7644C482.899 91.1777 483.466 91.3844 484.212 91.3844C484.959 91.3844 485.526 91.1777 485.912 90.7644C486.299 90.3377 486.552 89.7844 486.672 89.1044C486.792 88.4111 486.852 87.5577 486.852 86.5444Z" fill="white"/>
<path d="M417.383 22.1753C418.494 20.8515 419.633 19.5445 420.711 18.1903C421.796 16.8227 421.523 15.216 420.068 14.6231C419.488 14.3873 418.771 14.4884 418.07 14.4311C418.073 14.5018 418.063 14.4142 418.067 14.3233C418.11 13.2151 417.487 12.511 416.578 12.0698C415.705 11.6487 414.934 12.0799 414.375 12.7064C412.805 14.4648 411.296 16.2804 409.736 18.1095L416.221 23.5429C416.638 23.0545 417.019 22.6166 417.39 22.1719L417.383 22.1753ZM412.286 17.3752C413.118 16.3815 413.873 15.4652 414.644 14.5625C415.059 14.0774 415.645 14.0471 416.13 14.4513C416.568 14.8151 416.635 15.3372 416.251 15.8122C415.473 16.7655 414.668 17.6985 413.839 18.6855L412.29 17.3785L412.286 17.3752ZM417.464 16.5263C417.861 16.0682 418.451 16.0345 418.909 16.3916C419.374 16.752 419.492 17.4122 419.108 17.8905C418.289 18.9112 417.43 19.8982 416.541 20.9593C415.955 20.4641 415.443 20.0296 414.9 19.5714C415.776 18.5272 416.605 17.5166 417.46 16.5263H417.464ZM457.913 14.4176L453.028 16.4791L456.296 12.255C456.296 12.255 454.911 10.7897 454.837 10.7358C453.443 12.5245 449.525 17.5234 449.525 17.5234L451.186 19.4199L456.067 17.4223L453.119 21.7677L454.625 23.7214L462.383 19.9588L461.059 18.3251C459.519 19.0493 456.208 20.6089 456.208 20.6089L459.331 16.1962L457.913 14.4142V14.4176Z" fill="white"/>
<path d="M435.637 12.7774C424.901 12.8077 416.483 21.3267 416.5 32.1531C416.513 42.4708 425.265 51.0807 435.643 51.01C446.672 50.9359 454.931 41.8645 454.76 31.4558C454.591 21.266 446.001 12.7505 435.637 12.7774ZM435.593 49.7165V31.9274H417.78C417.507 22.3002 425.804 13.8654 435.61 14.0541V31.8634C441.609 31.8634 447.524 31.8634 453.432 31.8634C453.843 40.992 445.786 49.9253 435.593 49.7198V49.7165Z" fill="white"/>
<path d="M435.105 0.677854C418.438 0.943966 404.418 14.5426 404.401 31.8332C404.368 49.2955 418.529 62.7696 434.94 63.0828C452.46 63.4163 466.881 49.2787 466.847 31.7928C466.813 14.3742 452.419 0.401636 435.105 0.677854ZM435.654 61.7893C419.223 61.8365 405.907 48.5949 405.695 32.2947C405.473 15.5566 418.977 1.97136 435.624 1.97136C452.16 1.97136 465.644 15.4488 465.55 31.9039C465.456 48.514 452.197 61.7691 435.654 61.7893Z" fill="white"/>
<path d="M432.852 6.05047L434.89 11.4468H436.642L438.669 6.19868V11.4536H440.232V3.60156H437.834L435.769 9.11918L433.617 3.60156H431.282V11.4468H432.849V6.05047H432.852Z" fill="white"/>
<g filter="url(#filter0_d_320_5187)">
<path d="M251.358 51.0102C243.993 51.0102 239.416 46.4345 239.416 39.1254C239.416 31.4894 249.841 16.6334 250.347 15.9946C250.474 15.8129 250.639 15.6656 250.827 15.5643C251.015 15.4629 251.223 15.4102 251.433 15.4102C251.643 15.4102 251.851 15.4629 252.039 15.5643C252.227 15.6656 252.392 15.8129 252.519 15.9946C252.956 16.6334 263.45 31.4894 263.45 39.1254C263.313 46.4345 258.736 51.0102 251.358 51.0102Z" fill="white"/>
</g>
<defs>
<filter id="filter0_d_320_5187" x="239.416" y="15.4102" width="24.0342" height="35.6001" filterUnits="userSpaceOnUse" color-interpolation-filters="sRGB">
<feFlood flood-opacity="0" result="BackgroundImageFix"/>
<feColorMatrix in="SourceAlpha" type="matrix" values="0 0 0 0 0 0 0 0 0 0 0 0 0 0 0 0 0 0 127 0" result="hardAlpha"/>
<feOffset/>
<feComposite in2="hardAlpha" operator="out"/>
<feColorMatrix type="matrix" values="0 0 0 0 1 0 0 0 0 1 0 0 0 0 1 0 0 0 0.25 0"/>
<feBlend mode="normal" in2="BackgroundImageFix" result="effect1_dropShadow_320_5187"/>
<feBlend mode="normal" in="SourceGraphic" in2="effect1_dropShadow_320_5187" result="shape"/>
</filter>
</defs>
</svg>
