<svg width="502" height="275" viewBox="0 0 502 275" fill="none" xmlns="http://www.w3.org/2000/svg">
<ellipse cx="250.092" cy="151.567" rx="87.8997" ry="41.2453" stroke="white" stroke-width="2" stroke-linecap="round" stroke-linejoin="round" stroke-dasharray="4 6"/>
<ellipse cx="250.769" cy="151.567" rx="165.657" ry="77.7575" stroke="white" stroke-width="2" stroke-linecap="round" stroke-linejoin="round" stroke-dasharray="4 6"/>
<ellipse cx="250.769" cy="152.243" rx="249.5" ry="121.707" stroke="white" stroke-width="2" stroke-linecap="round" stroke-linejoin="round" stroke-dasharray="4 6"/>
<path d="M239.626 33.9852L235.806 16.1806L261.061 15.5107L276.75 20.8682L267.111 39.8406L239.626 33.9852Z" fill="#31373E"/>
<path d="M290.903 4.42422C290.282 4.11384 290.017 4.70446 289.655 5.0058C289.532 5.10223 289.426 5.22879 289.321 5.3433C288.417 6.33169 287.359 6.97956 285.976 6.90121C283.954 6.78369 282.23 7.43458 280.706 9.01058C280.38 7.06393 279.304 5.90379 277.665 5.15948C276.806 4.77377 275.939 4.38504 275.339 3.54431C274.92 2.94465 274.805 2.27568 274.595 1.61876C274.462 1.221 274.329 0.814191 273.88 0.747897C273.392 0.669549 273.202 1.0854 273.013 1.43495C272.25 2.85726 271.955 4.42723 271.985 6.01227C272.051 9.58312 273.528 12.4308 276.463 14.4527C276.797 14.6848 276.882 14.9168 276.776 15.2573C276.577 15.9534 276.336 16.6314 276.128 17.3275C275.996 17.7735 275.797 17.8699 275.327 17.677C273.718 16.99 272.325 15.9745 271.093 14.745C269.005 12.6839 267.118 10.4088 264.765 8.62788C264.22 8.21806 263.659 7.82632 263.086 7.45567C260.685 5.07511 263.4 3.11942 264.03 2.88739C264.687 2.64632 264.259 1.81162 262.131 1.82367C260.007 1.83271 258.06 2.55894 255.583 3.52623C255.222 3.67087 254.839 3.77935 254.45 3.86373C252.199 3.42679 249.864 3.33036 247.423 3.61061C242.828 4.13192 239.16 6.34976 236.46 10.1346C233.221 14.6848 232.455 19.8527 233.393 25.2436C234.372 30.9269 237.214 35.6308 241.58 39.3071C246.106 43.122 251.322 44.9903 257.268 44.6317C260.881 44.4178 264.904 43.9266 269.439 40.0062C270.584 40.5878 271.786 40.8198 273.775 40.9946C275.312 41.1392 276.788 40.9162 277.93 40.6751C279.723 40.2894 279.597 38.5929 278.949 38.2855C273.697 35.7874 274.851 36.806 273.802 35.9833C276.472 32.759 280.492 29.4111 282.065 18.56C282.188 17.6981 282.083 17.1557 282.065 16.4596C282.056 16.0348 282.149 15.869 282.628 15.8208C283.942 15.6671 285.22 15.2995 286.395 14.6396C289.797 12.7411 291.171 9.62531 291.494 5.88872C291.542 5.31618 291.485 4.72857 290.891 4.42723M261.236 38.0535C256.147 33.9674 253.679 32.6234 252.657 32.6807C251.705 32.7379 251.877 33.8529 252.085 34.5791C252.305 35.2963 252.591 35.7905 252.992 36.4172C253.269 36.8331 253.459 37.4538 252.714 37.9179C251.075 38.9545 248.224 37.5684 248.092 37.5021C244.774 35.5072 241.999 32.8765 240.046 29.2755C238.16 25.8102 237.063 22.0947 236.882 18.126C236.834 17.1678 237.111 16.8303 238.042 16.6555C239.272 16.4175 240.531 16.3843 241.77 16.5591C246.965 17.3335 251.389 19.7051 255.095 23.4597C257.21 25.5992 258.81 28.1546 260.462 30.6527C262.216 33.3044 264.102 35.8296 266.504 37.9028C267.35 38.6291 268.028 39.1805 268.676 39.5873C266.724 39.8103 263.46 39.8585 261.23 38.0565M263.671 22.0374C263.671 21.6125 264.006 21.272 264.424 21.272C264.521 21.272 264.605 21.2901 264.681 21.3202C264.976 21.4347 265.172 21.721 265.166 22.0374C265.172 22.4533 264.837 22.7968 264.421 22.8028H264.415C264.003 22.8028 263.671 22.4653 263.671 22.0555C263.671 22.0495 263.671 22.0434 263.671 22.0404M271.25 26.009C270.765 26.2109 270.279 26.3857 269.809 26.4068C269.086 26.446 268.294 26.1446 267.866 25.777C267.197 25.2045 266.721 24.885 266.522 23.8906C266.434 23.4657 266.483 22.8058 266.558 22.4291C266.73 21.6155 266.54 21.0942 265.976 20.6181C265.518 20.2324 264.937 20.1239 264.298 20.1239C264.06 20.1239 263.84 20.0184 263.677 19.9311C263.361 19.7804 263.228 19.4007 263.379 19.0843C263.385 19.0692 263.394 19.0542 263.403 19.0421C263.469 18.9065 263.795 18.578 263.87 18.5208C264.738 18.0176 265.738 18.1833 266.663 18.56C267.522 18.9186 268.167 19.5755 269.104 20.5066C270.056 21.6306 270.228 21.938 270.771 22.7817C271.201 23.4386 271.59 24.1166 271.858 24.8911C272.021 25.3762 271.81 25.771 271.25 26.0151" fill="white"/>
<path d="M432.464 263.439L421.248 262.344L404.278 254.035L397.73 231.472L401.781 223.626L408.979 219.366L415.443 211.58L425.625 210.368L445.264 217.75L449.524 227.739L451.727 238.316L449.524 249.921L432.464 263.439Z" fill="#2F363C"/>
<path d="M422.706 206.951C426.467 207.004 429.992 208.456 432.883 211.346C433.31 211.773 433.68 211.871 434.253 211.79C442.543 210.619 449.821 215.859 451.345 224.097C451.744 226.264 451.618 228.419 451 230.533C450.845 231.049 450.947 231.374 451.28 231.785C458.139 240.205 454.037 252.935 443.551 255.708C442.954 255.862 442.689 256.135 442.482 256.676C438.587 266.808 425.499 269.536 417.868 261.807C417.486 261.424 417.16 261.343 416.644 261.416C408.236 262.604 400.95 257.355 399.446 249.028C399.056 246.889 399.202 244.759 399.816 242.677C399.97 242.161 399.869 241.836 399.543 241.425C392.656 232.997 396.832 220.173 407.354 217.474C407.878 217.339 408.122 217.112 408.313 216.62C410.582 210.696 416.083 206.923 422.706 206.951ZM431.822 243.446C427.065 246.19 422.462 248.829 417.892 251.512C416.86 252.118 415.981 252.102 414.949 251.496C411.371 249.374 407.76 247.316 404.154 245.251C403.89 245.104 403.674 244.808 403.256 244.934C402.768 249.337 404.142 253.008 407.76 255.61C411.403 258.229 415.408 258.554 419.376 256.452C423.438 254.305 427.361 251.894 431.338 249.593C431.565 249.467 431.818 249.365 431.818 249.032V243.45L431.822 243.446ZM429.285 213.461C429.195 213.143 428.959 213.054 428.776 212.924C425.15 210.468 421.291 210.078 417.376 212.009C413.424 213.965 411.322 217.311 411.204 221.722C411.086 226.207 411.188 230.695 411.159 235.18C411.159 235.66 411.322 235.916 411.729 236.131C413.062 236.867 414.375 237.644 415.689 238.396C415.851 238.485 415.998 238.685 416.27 238.514C416.27 233.204 416.286 227.866 416.262 222.527C416.254 221.43 416.668 220.722 417.62 220.189C420.376 218.64 423.101 217.047 425.841 215.461C426.991 214.798 428.142 214.119 429.285 213.457V213.461ZM434.533 234.477V235.635C434.533 240.673 434.525 245.722 434.542 250.76C434.55 251.785 434.172 252.48 433.273 252.972C432.013 253.659 430.781 254.395 429.541 255.11C426.865 256.659 424.186 258.208 421.259 259.904C421.511 259.993 421.641 260.014 421.73 260.087C425.093 262.543 428.764 263.104 432.614 261.563C436.465 260.022 438.949 257.094 439.42 252.972C439.99 247.934 439.538 242.84 439.628 237.774C439.636 237.501 439.51 237.347 439.294 237.221C437.754 236.335 436.221 235.444 434.538 234.477H434.533ZM428.126 227.626C428.496 227.853 428.752 227.996 428.996 228.142C433.383 230.679 437.758 233.224 442.165 235.737C443.116 236.282 443.523 236.997 443.515 238.083C443.486 242.279 443.507 246.475 443.507 250.67C443.507 250.979 443.535 251.276 443.551 251.65C443.779 251.569 443.913 251.524 444.051 251.467C447.995 249.638 450.333 246.564 450.703 242.25C451.093 237.782 449.308 234.196 445.474 231.83C441.612 229.447 437.627 227.272 433.704 224.987C433.358 224.788 433.106 224.759 432.745 224.971C431.256 225.841 429.752 226.682 428.13 227.626H428.126ZM407.301 221.673C406.894 221.621 406.65 221.808 406.394 221.938C402.642 223.824 400.45 226.87 400.105 231.037C399.751 235.359 401.426 238.912 405.097 241.23C409.029 243.714 413.135 245.934 417.16 248.272C417.396 248.406 417.612 248.524 417.884 248.361C419.441 247.454 421.003 246.548 422.649 245.596C422.304 245.389 422.068 245.235 421.824 245.088C417.437 242.551 413.062 240.006 408.655 237.501C407.667 236.94 407.268 236.205 407.277 235.082C407.313 230.634 407.293 226.174 407.293 221.669L407.301 221.673ZM418.998 229.72C419.38 229.52 419.632 229.394 419.876 229.248C424.219 226.748 428.569 224.263 432.879 221.718C433.911 221.112 434.79 221.092 435.822 221.702C439.457 223.849 443.116 225.934 446.767 228.036C446.983 228.162 447.166 228.398 447.536 228.288C448.016 223.975 446.71 220.332 443.185 217.722C439.526 215.002 435.473 214.632 431.431 216.762C427.37 218.909 423.446 221.32 419.462 223.613C419.234 223.739 418.99 223.849 418.99 224.182V229.72H418.998ZM431.822 236.851C431.822 235.611 431.793 234.578 431.83 233.554C431.846 233.082 431.696 232.81 431.277 232.586C429.463 231.57 427.662 230.529 425.877 229.468C425.532 229.26 425.28 229.26 424.926 229.459C423.141 230.521 421.336 231.561 419.527 232.578C419.108 232.814 418.982 233.086 418.982 233.558C419.01 235.578 419.018 237.607 418.982 239.628C418.974 240.181 419.173 240.469 419.645 240.713C420.507 241.157 421.32 241.673 422.165 242.153C423.235 242.759 424.304 243.856 425.365 243.848C426.471 243.84 427.569 242.771 428.654 242.153C429.695 241.555 431.065 241.157 431.655 240.258C432.261 239.307 431.765 237.855 431.826 236.851H431.822Z" fill="white"/>
<path d="M98.3275 263.519L94.0655 250.428L119.791 236.423L126.144 245.556L114.159 266.259L98.3275 263.519Z" fill="#31373E"/>
<path d="M129.046 242.012H129.058L128.801 242.009C128.764 242.009 128.726 242.009 128.689 242.009H127.959C125.645 241.98 123.619 240.443 122.977 238.214L121.493 233.122C120.851 230.877 118.801 229.33 116.468 229.324H98.0847C92.8964 229.324 89.784 236.238 87.7081 243.148C85.2501 251.339 82.0344 262.292 91.3402 262.292H91.5657H91.5563L92.5864 262.295C94.9191 262.295 96.97 263.852 97.6213 266.115L99.0679 271.163C99.691 273.358 101.661 274.892 103.931 274.97C103.884 274.97 103.837 274.98 103.787 274.977H121.944C127.133 274.977 130.245 268.063 132.321 261.149C134.748 253.062 137.91 242.287 129.046 242.009V242.012ZM115.804 245.841C114.564 250.218 113.308 254.593 112.047 258.967C111.267 260.955 109.348 262.292 107.178 262.298H98.21H99.1838C101.529 262.298 103.583 260.736 104.228 258.466C105.161 255.175 106.576 250.203 107.979 245.346C108.756 243.355 110.678 242.015 112.851 242.009H120.804C118.481 242.03 116.449 243.587 115.81 245.841H115.804Z" fill="white"/>
<path d="M250.002 164.792C241.157 164.792 235.659 159.227 235.659 150.337C235.659 141.05 248.18 122.982 248.787 122.205C248.94 121.984 249.138 121.805 249.364 121.682C249.59 121.558 249.839 121.494 250.092 121.494C250.344 121.494 250.593 121.558 250.82 121.682C251.046 121.805 251.243 121.984 251.396 122.205C251.922 122.982 264.524 141.05 264.524 150.337C264.36 159.227 258.863 164.792 250.002 164.792Z" fill="white"/>
<path d="M314.652 161.811L323.883 158.514L334.652 157.745L347.839 160.492L350.696 166.976L343.223 172.25H325.641L313.993 168.294L314.652 161.811Z" fill="#30373D"/>
<path d="M316.85 143.24L312.454 138.075L316.85 136.097L325.641 138.075V144.668L320.147 147.415L316.85 143.24Z" fill="#30373D"/>
<path d="M337.296 138.483L338.295 133.539L345.186 131.698L352.602 133.96L347.71 138.483L344.765 142.428H340.452L337.296 138.483Z" fill="#30373D"/>
<path d="M331.898 174.411C321.984 174.411 311.238 171.191 311.238 165.396C311.238 159.601 321.784 156.393 331.898 156.393C342.011 156.393 352.558 159.613 352.558 165.396C352.558 171.179 341.765 174.411 331.898 174.411ZM331.898 159.398C321.351 159.398 314.613 162.821 314.613 165.182C314.613 167.543 321.351 171.144 331.898 171.144C342.445 171.144 349.183 167.709 349.183 165.182C349.183 162.654 342.445 159.398 331.898 159.398ZM342.609 144.588H341.976C340.624 144.297 339.371 143.648 338.342 142.709C337.314 141.769 336.546 140.571 336.116 139.234C335.607 137.526 335.754 135.685 336.527 134.083C337.075 133.157 337.804 132.356 338.669 131.729C339.533 131.101 340.515 130.66 341.554 130.434C344.929 129.576 349.148 130.22 354.444 132.819C354.762 132.956 355.021 133.205 355.174 133.52C355.326 133.836 355.363 134.196 355.277 134.536C355.207 134.886 355.025 135.202 354.76 135.435C354.495 135.668 354.162 135.805 353.812 135.824C351.468 136.039 349.359 137.756 347.484 140.975C346.007 143.968 343.898 144.553 342.632 144.553L342.609 144.588ZM344.296 133.224C343.586 133.178 342.874 133.251 342.187 133.439C340.499 133.868 339.445 134.512 339.023 135.585C338.615 136.465 338.54 137.467 338.812 138.4C339.097 139.136 339.552 139.792 340.14 140.311C340.727 140.83 341.43 141.197 342.187 141.381C342.609 141.381 343.663 141.595 344.718 139.449C345.735 137.373 347.26 135.599 349.148 134.298C347.604 133.657 345.962 133.293 344.296 133.224ZM321.351 148.881C319.874 148.881 317.976 148.237 316.3 145.447C314.32 142.239 312.468 140.522 309.937 140.307C309.583 140.211 309.26 140.022 309.001 139.758C308.741 139.494 308.555 139.165 308.46 138.805C308.444 138.469 308.513 138.135 308.661 137.834C308.809 137.533 309.03 137.276 309.304 137.088C314.578 134.512 318.785 133.654 322.195 134.703C326.882 135.991 328.945 139.21 327.679 143.491C327.247 144.828 326.478 146.026 325.451 146.967C324.423 147.908 323.171 148.56 321.82 148.857L321.351 148.881ZM314.32 138.59C316.203 139.887 317.725 141.658 318.738 143.73C319.792 145.661 321.081 145.661 321.269 145.661C322.055 145.48 322.79 145.116 323.414 144.596C324.039 144.077 324.536 143.417 324.867 142.668C325.499 140.093 324.445 138.59 321.492 137.732C319.069 137.32 316.582 137.618 314.32 138.59Z" fill="white"/>
<path d="M331.535 162.999C330.691 162.999 330.175 162.999 330.175 161.974V157.896C329.964 149.096 329.964 142.239 336.281 139.02C336.648 138.842 337.068 138.809 337.457 138.928C337.847 139.047 338.18 139.309 338.39 139.663C338.565 140.037 338.597 140.464 338.48 140.861C338.363 141.257 338.106 141.596 337.757 141.81C333.339 143.944 333.128 148.881 333.339 157.681V161.759C333.55 162.82 332.378 162.952 331.535 162.952V162.999Z" fill="white"/>
<path d="M331.535 162.999C330.691 162.999 330.175 162.999 330.175 161.974C330.175 154.032 330.175 148.022 326.8 146.305C326.463 146.081 326.215 145.742 326.1 145.35C325.984 144.957 326.008 144.535 326.168 144.159C326.254 143.966 326.38 143.794 326.538 143.655C326.695 143.516 326.879 143.412 327.079 143.351C327.279 143.29 327.489 143.273 327.695 143.301C327.902 143.33 328.1 143.403 328.277 143.515C333.339 146.091 333.339 153.174 333.339 162.177C333.55 162.821 332.378 162.999 331.535 162.999Z" fill="white"/>
<path d="M324.257 164.109C324.257 164.599 325.062 165.069 326.495 165.416C327.928 165.763 329.871 165.957 331.897 165.957C333.924 165.957 335.867 165.763 337.3 165.416C338.733 165.069 339.538 164.599 339.538 164.109C339.538 163.619 338.733 163.149 337.3 162.802C335.867 162.455 333.924 162.261 331.897 162.261C329.871 162.261 327.928 162.455 326.495 162.802C325.062 163.149 324.257 163.619 324.257 164.109Z" fill="white"/>
<path d="M108.794 87.6982L114.917 82.5596H139.848V121.049H108.794V87.6982Z" fill="#31383F"/>
<path d="M139.512 80.3555H115.761C110.872 80.3555 106.941 84.4325 106.941 89.423V121.069C106.941 122.194 107.853 123.105 108.975 123.105H139.512C140.637 123.105 141.546 122.194 141.546 121.069V82.3917C141.546 81.2667 140.635 80.3555 139.512 80.3555ZM137.476 84.428V119.033H111.012V89.423C111.012 86.6487 113.156 84.428 115.761 84.428H137.476Z" fill="white"/>
<path d="M143.583 119.033C144.123 119.033 144.641 119.248 145.023 119.63C145.405 120.012 145.619 120.53 145.619 121.07C145.619 121.61 145.405 122.128 145.023 122.509C144.641 122.891 144.123 123.106 143.583 123.106H104.905C104.365 123.106 103.847 122.891 103.466 122.509C103.084 122.128 102.869 121.61 102.869 121.07C102.869 120.53 103.084 120.012 103.466 119.63C103.847 119.248 104.365 119.033 104.905 119.033H143.583ZM129.334 89.5156C129.874 89.5156 130.392 89.7302 130.773 90.112C131.155 90.4939 131.37 91.0118 131.37 91.5519C131.37 92.0919 131.155 92.6099 130.773 92.9917C130.392 93.3736 129.874 93.5881 129.334 93.5881H117.118C116.578 93.5881 116.06 93.3736 115.679 92.9917C115.297 92.6099 115.082 92.0919 115.082 91.5519C115.082 91.0118 115.297 90.4939 115.679 90.112C116.06 89.7302 116.578 89.5156 117.118 89.5156H129.334ZM121.733 97.9486C121.828 97.6976 121.971 97.4677 122.155 97.2722C122.339 97.0768 122.56 96.9196 122.804 96.8097C123.049 96.6998 123.313 96.6394 123.582 96.6319C123.85 96.6244 124.117 96.67 124.367 96.7661C124.618 96.8621 124.847 97.0068 125.041 97.1917C125.236 97.3766 125.392 97.5981 125.5 97.8435C125.609 98.0888 125.668 98.3533 125.674 98.6215C125.68 98.8898 125.633 99.1566 125.536 99.4066L124.147 103.013H127.297C128.746 103.013 129.705 104.471 129.201 105.776L129.102 105.992L126.049 111.836C125.798 112.314 125.368 112.674 124.853 112.835C124.337 112.997 123.779 112.947 123.3 112.696C122.822 112.446 122.462 112.016 122.301 111.5C122.139 110.985 122.189 110.426 122.44 109.948L123.934 107.086H121.189C120.878 107.086 120.572 107.015 120.293 106.878C120.015 106.741 119.771 106.543 119.581 106.297C119.39 106.052 119.259 105.766 119.196 105.462C119.133 105.158 119.14 104.844 119.218 104.543L119.29 104.321L121.733 97.9486Z" fill="white"/>
</svg>
