<svg width="605" height="54" viewBox="0 0 605 54" fill="none" xmlns="http://www.w3.org/2000/svg">
<path d="M104.459 36.8149L101.633 33.9885C101.364 33.7197 101.308 33.3098 101.485 32.9688C101.833 32.2901 102.125 31.5786 102.364 30.8376C102.479 30.4737 102.81 30.2179 103.19 30.2179H107.184C107.971 30.2179 108.603 29.5851 108.603 28.7982V24.3718C108.603 23.5849 107.971 22.9521 107.184 22.9521H103.167C102.787 22.9521 102.462 22.7029 102.341 22.3357C102.102 21.6012 101.81 20.8996 101.459 20.2209C101.282 19.8799 101.334 19.47 101.6 19.1946L104.436 16.3584C104.99 15.8043 104.99 14.9059 104.436 14.3518L101.302 11.2173C100.747 10.6632 99.849 10.6632 99.2949 11.2173L96.4358 14.0764C96.1669 14.3453 95.7571 14.401 95.4161 14.224C94.7439 13.883 94.0423 13.5977 93.3209 13.3682C92.957 13.2534 92.7012 12.9288 92.7012 12.5419V8.49589C92.7012 7.70898 92.0619 7.07617 91.2815 7.07617H86.8552C86.0682 7.07617 85.4354 7.71554 85.4354 8.49589V12.5649C85.4354 12.9452 85.1862 13.2698 84.819 13.3911C84.101 13.6239 83.4124 13.9092 82.7501 14.2502C82.4091 14.4272 81.9993 14.3748 81.7304 14.1026L78.8582 11.2304C78.3041 10.6763 77.4057 10.6763 76.8515 11.2304L73.717 14.3584C73.1629 14.9125 73.1596 15.8109 73.717 16.365L76.5892 19.2405C76.8581 19.5127 76.9138 19.9225 76.7368 20.2602C76.3958 20.9258 76.1105 21.6209 75.8777 22.339C75.7597 22.7029 75.4318 22.9587 75.0515 22.9554C74.0941 22.9554 72.2711 22.9554 70.9891 22.9488C70.2021 22.9488 69.5693 23.5816 69.5693 24.3686V28.8015C69.5693 29.5884 70.2021 30.2212 70.9891 30.2212L75.0384 30.2278C75.4187 30.2278 75.7499 30.4835 75.8646 30.8475C76.0974 31.5753 76.3827 32.277 76.7237 32.9426C76.9007 33.2836 76.8483 33.6902 76.5761 33.9623L73.7236 36.8149C73.1695 37.369 73.1695 38.2674 73.7236 38.8215L76.8515 41.956C77.4057 42.5101 78.3041 42.5101 78.8582 41.956L81.7009 39.1133C81.973 38.8412 82.3829 38.7887 82.7271 38.9658C83.3993 39.3133 84.1042 39.6084 84.842 39.8445C85.2059 39.9625 85.4584 40.2904 85.4584 40.6707V44.6807C85.4584 45.4676 86.0912 46.1004 86.8781 46.1004H91.3045C92.0914 46.1004 92.7242 45.4676 92.7242 44.6807V40.6806C92.7242 40.3002 92.9799 39.9691 93.3439 39.8543C94.0849 39.6215 94.7898 39.3231 95.4751 38.9756C95.8161 38.7985 96.226 38.851 96.4948 39.1231L99.3146 41.9429C99.8687 42.497 100.767 42.497 101.321 41.9429L104.456 38.8084C105.02 38.2543 105.02 37.3559 104.462 36.8018L104.459 36.8149ZM95.8522 27.9621C95.3407 30.6638 93.1636 32.8377 90.4618 33.3525C85.6322 34.2705 81.4714 30.1097 82.3829 25.2735C82.8944 22.5718 85.0715 20.3979 87.7732 19.8832C92.6094 18.9716 96.767 23.1292 95.8522 27.9621Z" fill="white"/>
<path d="M104.305 12.0663L107.591 13.1614C108.269 13.3877 108.446 14.2598 107.915 14.7352L105.322 17.037C104.941 17.378 104.905 17.9583 105.243 18.3485L108.509 22.0273C108.85 22.4076 109.43 22.4437 109.82 22.106L112.414 19.8043C112.948 19.3321 113.791 19.6108 113.935 20.3125L114.63 23.7093C114.732 24.211 115.224 24.5356 115.725 24.4339L120.545 23.4437C121.047 23.3421 121.371 22.8503 121.27 22.3486L120.575 18.9518C120.434 18.2501 121.099 17.6599 121.778 17.8862L125.063 18.9813C125.549 19.1419 126.073 18.8796 126.237 18.3944L127.791 13.7287C127.952 13.2434 127.69 12.7188 127.204 12.5548L123.913 11.4564C123.234 11.2302 123.057 10.3581 123.588 9.88263L126.181 7.58091C126.562 7.23991 126.598 6.65957 126.26 6.26939L122.995 2.59058C122.654 2.21024 122.073 2.17417 121.683 2.51189L119.089 4.8136C118.555 5.28575 117.712 5.00705 117.568 4.30539L116.873 0.915114C116.771 0.413458 116.28 0.0888568 115.778 0.1905L110.958 1.1807C110.456 1.28234 110.132 1.77416 110.233 2.27581L110.929 5.67265C111.07 6.37431 110.404 6.9645 109.725 6.73826L106.443 5.64314C105.958 5.48248 105.433 5.74478 105.269 6.23004L103.715 10.8958C103.555 11.381 103.817 11.9056 104.302 12.0696L104.305 12.0663ZM112.542 10.4728C113.26 9.18424 114.752 8.43995 116.211 8.6334C118.837 8.98751 120.257 11.8171 118.962 14.1319C118.244 15.4205 116.752 16.1648 115.293 15.9648C112.666 15.6238 111.247 12.7909 112.542 10.4728ZM127.87 40.3853L126.427 35.6573C126.28 35.1687 125.755 34.8867 125.267 35.0376L121.935 36.0507C121.253 36.2606 120.598 35.6474 120.755 34.9523L121.542 31.562C121.657 31.0604 121.349 30.5587 120.847 30.444L116.034 29.3259C115.532 29.2111 115.03 29.5193 114.916 30.021L114.129 33.4113C113.968 34.1129 113.109 34.3687 112.584 33.8834L110.037 31.5063C109.66 31.1522 109.073 31.1751 108.722 31.5522L105.348 35.1654C104.994 35.5425 105.017 36.1294 105.394 36.4802L107.942 38.8574C108.466 39.3459 108.26 40.2181 107.578 40.4312L104.246 41.4443C103.758 41.5919 103.476 42.1165 103.627 42.605L105.069 47.333C105.217 47.8216 105.741 48.1036 106.23 47.9527L109.561 46.9396C110.243 46.7297 110.899 47.3429 110.742 48.038L109.955 51.4283C109.84 51.9299 110.148 52.4316 110.65 52.5463L115.463 53.6644C115.965 53.7792 116.466 53.471 116.581 52.9693L117.368 49.579C117.529 48.8774 118.388 48.6216 118.912 49.1069L121.46 51.484C121.837 51.8381 122.424 51.8152 122.775 51.4381L126.149 47.8249C126.503 47.4478 126.48 46.8609 126.103 46.5101L123.555 44.1329C123.031 43.6444 123.237 42.7722 123.919 42.5591L127.25 41.546C127.739 41.3984 128.021 40.8804 127.87 40.3853ZM117.509 44.7723C115.152 46.0084 112.348 44.51 112.056 41.8673C111.896 40.3984 112.689 38.9164 113.994 38.2278C116.352 36.9917 119.162 38.4901 119.447 41.1328C119.608 42.6017 118.814 44.0838 117.509 44.7723Z" fill="white"/>
<path d="M231.126 29.595C232.487 32.4672 235.894 33.7689 238.792 32.4967C241.812 31.2639 243.261 27.8179 242.028 24.7981C241.989 24.6997 241.946 24.6014 241.9 24.503C240.52 21.5521 237.009 20.2799 234.058 21.6603C233.956 21.7062 233.858 21.7554 233.763 21.8078C230.92 23.2571 229.766 26.7228 231.126 29.5917V29.595Z" fill="white"/>
<path d="M258.747 26.9915C264.016 17.519 264.55 7.92854 260.048 3.42675C255.55 -1.04225 245.897 -0.511082 236.425 4.75794C226.982 -0.422555 217.421 -0.924211 212.952 3.54479C208.483 8.01379 208.984 17.5453 214.194 26.9882C208.984 36.4016 208.483 45.9626 212.952 50.4021C214.342 51.7923 216.237 52.7694 218.427 53.2448C223.342 54.2809 229.706 52.8612 236.395 49.1889C243.143 52.9202 249.599 54.3989 254.54 53.3628C256.701 52.8907 258.625 51.9136 260.016 50.5201C261.406 49.1266 262.412 47.2348 262.858 45.074C263.924 40.1296 262.445 33.7064 258.714 26.9882H258.743L258.747 26.9915ZM217.185 7.75149C218.991 5.94487 222.306 5.76781 227.07 7.18753C228.254 7.54164 229.438 7.98756 230.621 8.48922C228.254 10.2368 226.005 12.191 223.873 14.3222C221.683 16.4829 219.7 18.7912 217.922 21.1913C217.421 20.0076 216.975 18.824 216.621 17.6108C215.172 12.8435 215.349 9.5286 217.185 7.72526V7.75477V7.75149ZM227.07 46.7659C222.273 48.2151 218.988 48.0086 217.185 46.2019C215.378 44.3953 215.201 41.11 216.621 36.3164C216.975 35.1327 217.421 33.9491 217.922 32.7654C221.503 37.5951 225.772 41.8739 230.592 45.4642C229.408 45.9659 228.224 46.4118 227.041 46.7659H227.07ZM228.077 35.4278C225.293 32.6441 222.955 29.8342 221.09 26.962C222.955 24.0897 225.293 21.2798 228.077 18.4961C230.831 15.7419 233.612 13.4632 236.425 11.5975C239.297 13.4632 242.136 15.8009 244.92 18.5846C247.674 21.3388 249.983 24.1192 251.848 26.9325C249.983 29.7457 247.674 32.5261 244.92 35.2803C242.107 38.064 239.297 40.4017 236.425 42.2674C233.612 40.4017 230.831 38.123 228.077 35.3688V35.4278ZM255.816 46.32C254.009 48.1266 250.694 48.3037 245.93 46.8839C244.687 46.5003 243.445 46.0544 242.199 45.5232C244.625 43.7461 246.937 41.7625 249.127 39.5722C251.288 37.441 253.242 35.1622 254.989 32.7949C255.524 34.0081 255.966 35.2508 256.35 36.4967C257.799 41.2641 257.622 44.5789 255.786 46.3823L255.816 46.3233V46.32ZM256.379 17.5157C255.996 18.7584 255.55 20.0011 255.019 21.2175C253.271 18.8502 251.288 16.5715 249.127 14.4074C246.937 12.2172 244.628 10.2335 242.199 8.45643C243.441 7.92198 244.684 7.44984 245.93 7.06622C250.727 5.61699 254.012 5.82355 255.816 7.63017C257.622 9.43679 257.799 12.7221 256.379 17.5157Z" fill="white"/>
<path d="M371.839 0.407227C357.15 0.407227 345.199 12.3584 345.199 27.0475C345.199 41.7365 357.15 53.6877 371.839 53.6877C386.528 53.6877 398.48 41.7365 398.48 27.0475C398.48 12.3584 386.528 0.407227 371.839 0.407227ZM371.839 49.5892C359.41 49.5892 349.298 39.4774 349.298 27.0475C349.298 14.6175 359.41 4.50572 371.839 4.50572C384.269 4.50572 394.381 14.6175 394.381 27.0475C394.381 39.4774 384.269 49.5892 371.839 49.5892Z" fill="white"/>
<path d="M368.944 15.07C368.029 14.4044 366.747 14.6077 366.082 15.5224C365.826 15.8733 365.691 16.2962 365.691 16.729V38.4871C365.691 39.6183 366.609 40.5364 367.744 40.5331C368.177 40.5331 368.596 40.3954 368.947 40.1429L383.908 29.2639C384.823 28.5983 385.026 27.3163 384.361 26.4015C384.233 26.2277 384.082 26.0736 383.908 25.949L368.947 15.07H368.944Z" fill="white"/>
<path d="M531.65 50.6481C530.6 51.6875 529.341 52.4908 527.958 53.0088C526.764 53.458 525.499 53.6876 524.22 53.6876C524.076 53.6876 523.931 53.6876 523.787 53.6777C522.367 53.6253 520.974 53.2843 519.689 52.681C518.354 52.058 517.164 51.1563 516.2 50.0382L502.127 33.7721C500.708 34.1328 499.245 34.3131 497.783 34.3131C493.17 34.3131 488.825 32.5393 485.56 29.3228C480.632 24.4931 479.13 17.1519 481.769 10.7747C482.025 10.1582 482.573 9.70904 483.225 9.57461C483.881 9.44018 484.56 9.64347 485.035 10.1123L490.815 15.8076C492.36 17.3159 494.829 17.3159 496.373 15.8076C497.094 15.0961 497.501 14.1256 497.501 13.1124C497.501 12.0993 497.094 11.1288 496.373 10.4173L490.593 4.71871C489.802 3.93836 489.796 2.66618 490.576 1.87927C490.77 1.68255 490.999 1.52844 491.255 1.4268C494.366 0.177577 497.773 -0.153581 501.065 0.475948C504.445 1.11203 507.557 2.74488 510.006 5.15807C514.338 9.40411 516.062 15.6371 514.541 21.4963L531.033 35.346C533.276 37.2182 534.623 39.9494 534.738 42.8675C534.853 45.7791 533.732 48.6054 531.65 50.6415V50.6481ZM507.186 26.467C509.688 24.0013 511.065 20.7291 511.065 17.247C511.065 13.7649 509.688 10.4894 507.186 8.02702C504.2 5.09249 500.022 3.73179 495.901 4.3187L499.196 7.56471C500.685 9.03033 501.524 11.0337 501.524 13.1223C501.524 15.2109 500.685 17.2142 499.196 18.6798C496.107 21.7226 491.084 21.7226 487.996 18.6798L484.635 15.3715C484.032 19.4208 485.396 23.5325 488.379 26.4703C493.563 31.5753 501.999 31.5753 507.183 26.4703L507.186 26.467ZM519.246 47.4152C520.439 48.7956 522.105 49.5923 523.951 49.6645C525.767 49.7464 527.535 49.0677 528.83 47.789C530.125 46.5135 530.794 44.8282 530.722 43.0315C530.65 41.2347 529.843 39.5986 528.45 38.428L512.974 25.4309C512.18 26.867 511.18 28.1785 510.01 29.3294C508.849 30.4737 507.534 31.4475 506.101 32.2245L519.246 47.4152ZM526.184 40.0707C526.879 40.7527 527.272 41.6872 527.272 42.6642C527.272 43.6413 526.879 44.5758 526.184 45.2578C524.741 46.6676 522.436 46.6676 520.994 45.2578C520.298 44.5758 519.905 43.6413 519.905 42.6642C519.905 41.6904 520.298 40.756 520.994 40.0707C522.426 38.6608 524.754 38.6608 526.187 40.0707H526.184Z" fill="white"/>
<path d="M1.28125 26.8188H55.8535" stroke="white" stroke-width="2" stroke-linecap="round" stroke-dasharray="4 8"/>
<path d="M141.626 26.8188H196.198" stroke="white" stroke-width="2" stroke-linecap="round" stroke-dasharray="4 8"/>
<path d="M276.911 26.8188H331.483" stroke="white" stroke-width="2" stroke-linecap="round" stroke-dasharray="4 8"/>
<path d="M412.195 26.8188H466.768" stroke="white" stroke-width="2" stroke-linecap="round" stroke-dasharray="4 8"/>
<path d="M548.462 26.8188H603.034" stroke="white" stroke-width="2" stroke-linecap="round" stroke-dasharray="4 8"/>
</svg>
